999
dxfrw 0.6.3
  0
SECTION
  2
HEADER
  9
$ACADVER
  1
AC1021
  9
$DWGCODEPAGE
  3
ANSI_1252
  9
$INSBASE
 10
0
 20
0
 30
0
  9
$EXTMIN
 10
329.9999999999999
 20
-1.13686837721616e-013
 30
0
  9
$EXTMAX
 10
627
 20
210
 30
0
  9
$LIMMIN
 10
0
 20
0
  9
$LIMMAX
 10
420
 20
297
  9
$ORTHOMODE
 70
    0
  9
$REGENMODE
 70
    1
  9
$FILLMODE
 70
    1
  9
$QTEXTMODE
 70
    0
  9
$MIRRTEXT
 70
    0
  9
$LTSCALE
 40
1
  9
$ATTMODE
 70
    0
  9
$TEXTSIZE
 40
2.5
  9
$TRACEWID
 40
15.68
  9
$TEXTSTYLE
  7
STANDARD
  9
$CLAYER
  8
freno
  9
$CELTYPE
  6
BYLAYER
  9
$CECOLOR
 62
  256
  9
$CELTSCALE
 40
1
  9
$DISPSILH
 70
    0
  9
$DIMSCALE
 40
2.5
  9
$DIMASZ
 40
2.5
  9
$DIMEXO
 40
0.625
  9
$DIMDLI
 40
3.75
  9
$DIMRND
 40
0
  9
$DIMDLE
 40
0
  9
$DIMEXE
 40
1.25
  9
$DIMTP
 40
0
  9
$DIMTM
 40
0
  9
$DIMTXT
 40
2.5
  9
$DIMCEN
 40
2.5
  9
$DIMTSZ
 40
0
  9
$DIMTOL
 70
    0
  9
$DIMLIM
 70
    0
  9
$DIMTIH
 70
    0
  9
$DIMTOH
 70
    0
  9
$DIMSE1
 70
    0
  9
$DIMSE2
 70
    0
  9
$DIMTAD
 70
    1
  9
$DIMZIN
 70
    8
  9
$DIMBLK
  1

  9
$DIMASO
 70
    1
  9
$DIMSHO
 70
    1
  9
$DIMPOST
  1

  9
$DIMAPOST
  1

  9
$DIMALT
 70
    0
  9
$DIMALTD
 70
    3
  9
$DIMALTF
 40
0.03937
  9
$DIMLFAC
 40
1
  9
$DIMTOFL
 70
    1
  9
$DIMTVP
 40
0
  9
$DIMTIX
 70
    0
  9
$DIMSOXD
 70
    0
  9
$DIMSAH
 70
    0
  9
$DIMBLK1
  1

  9
$DIMBLK2
  1

  9
$DIMSTYLE
  2
STANDARD
  9
$DIMCLRD
 70
    0
  9
$DIMCLRE
 70
    0
  9
$DIMCLRT
 70
    0
  9
$DIMTFAC
 40
1
  9
$DIMGAP
 40
0.625
  9
$DIMJUST
 70
    0
  9
$DIMSD1
 70
    0
  9
$DIMSD2
 70
    0
  9
$DIMTOLJ
 70
    0
  9
$DIMTZIN
 70
    8
  9
$DIMALTZ
 70
    0
  9
$DIMALTTZ
 70
    0
  9
$DIMUPT
 70
    0
  9
$DIMDEC
 70
    2
  9
$DIMTDEC
 70
    2
  9
$DIMALTU
 70
    2
  9
$DIMALTTD
 70
    3
  9
$DIMTXSTY
  7
standard
  9
$DIMAUNIT
 70
    0
  9
$DIMADEC
 70
    0
  9
$DIMALTRND
 40
0
  9
$DIMAZIN
 70
    0
  9
$DIMDSEP
 70
   44
  9
$DIMATFIT
 70
    3
  9
$DIMFRAC
 70
    0
  9
$DIMLDRBLK
  1
STANDARD
  9
$DIMLUNIT
 70
    2
  9
$DIMLWD
 70
   -2
  9
$DIMLWE
 70
   -2
  9
$DIMTMOVE
 70
    0
  9
$DIMFXL
 40
1
  9
$DIMFXLON
 70
    0
  9
$DIMJOGANG
 40
0.7854
  9
$DIMTFILL
 70
    0
  9
$DIMTFILLCLR
 70
    0
  9
$DIMARCSYM
 70
    0
  9
$DIMLTYPE
  6

  9
$DIMLTEX1
  6

  9
$DIMLTEX2
  6

  9
$LUNITS
 70
    2
  9
$LUPREC
 70
    4
  9
$SKETCHINC
 40
1
  9
$FILLETRAD
 40
0
  9
$AUNITS
 70
    0
  9
$AUPREC
 70
    2
  9
$MENU
  1
.
  9
$ELEVATION
 40
0
  9
$PELEVATION
 40
0
  9
$THICKNESS
 40
0
  9
$LIMCHECK
 70
    0
  9
$CHAMFERA
 40
0
  9
$CHAMFERB
 40
0
  9
$CHAMFERC
 40
0
  9
$CHAMFERD
 40
0
  9
$SKPOLY
 70
    0
  9
$USRTIMER
 70
    1
  9
$ANGBASE
 50
0
  9
$ANGDIR
 70
    0
  9
$PDMODE
 70
   34
  9
$PDSIZE
 40
0
  9
$PLINEWID
 40
0
  9
$SPLFRAME
 70
    0
  9
$SPLINETYPE
 70
    2
  9
$SPLINESEGS
 70
    8
  9
$HANDSEED
  5
20000
  9
$SURFTAB1
 70
    6
  9
$SURFTAB2
 70
    6
  9
$SURFTYPE
 70
    6
  9
$SURFU
 70
    6
  9
$SURFV
 70
    6
  9
$UCSBASE
  2

  9
$UCSNAME
  2

  9
$UCSORG
 10
0
 20
0
 30
0
  9
$UCSXDIR
 10
1
 20
0
 30
0
  9
$UCSYDIR
 10
0
 20
1
 30
0
  9
$UCSORTHOREF
  2

  9
$UCSORTHOVIEW
 70
    0
  9
$UCSORGTOP
 10
0
 20
0
 30
0
  9
$UCSORGBOTTOM
 10
0
 20
0
 30
0
  9
$UCSORGLEFT
 10
0
 20
0
 30
0
  9
$UCSORGRIGHT
 10
0
 20
0
 30
0
  9
$UCSORGFRONT
 10
0
 20
0
 30
0
  9
$UCSORGBACK
 10
0
 20
0
 30
0
  9
$PUCSBASE
  2

  9
$PUCSNAME
  2

  9
$PUCSORG
 10
0
 20
0
 30
0
  9
$PUCSXDIR
 10
1
 20
0
 30
0
  9
$PUCSYDIR
 10
0
 20
1
 30
0
  9
$PUCSORTHOREF
  2

  9
$PUCSORTHOVIEW
 70
    0
  9
$PUCSORGTOP
 10
0
 20
0
 30
0
  9
$PUCSORGBOTTOM
 10
0
 20
0
 30
0
  9
$PUCSORGLEFT
 10
0
 20
0
 30
0
  9
$PUCSORGRIGHT
 10
0
 20
0
 30
0
  9
$PUCSORGFRONT
 10
0
 20
0
 30
0
  9
$PUCSORGBACK
 10
0
 20
0
 30
0
  9
$USERI1
 70
    0
  9
$USERI2
 70
    0
  9
$USERI3
 70
    0
  9
$USERI4
 70
    0
  9
$USERI5
 70
    0
  9
$USERR1
 40
0
  9
$USERR2
 40
0
  9
$USERR3
 40
0
  9
$USERR4
 40
0
  9
$USERR5
 40
0
  9
$WORLDVIEW
 70
    1
  9
$SHADEDGE
 70
    3
  9
$SHADEDIF
 70
   70
  9
$TILEMODE
 70
    1
  9
$MAXACTVP
 70
   64
  9
$PINSBASE
 10
-288.0466610653547
 20
9.692891445238658
 30
0
  9
$PLIMCHECK
 70
    0
  9
$PEXTMIN
 10
0
 20
0
 30
0
  9
$PEXTMAX
 10
0
 20
0
 30
0
  9
$GRIDMODE
 70
    1
  9
$SNAPSTYLE
 70
    0
  9
$GRIDUNIT
 10
0
 20
0
  9
$PLIMMIN
 10
0
 20
0
  9
$PLIMMAX
 10
297
 20
210
  9
$UNITMODE
 70
    0
  9
$VISRETAIN
 70
    1
  9
$PLINEGEN
 70
    0
  9
$PSLTSCALE
 70
    1
  9
$TREEDEPTH
 70
 3020
  9
$CMLSTYLE
  2
Standard
  9
$CMLJUST
 70
    0
  9
$CMLSCALE
 40
20
  9
$PROXYGRAPHICS
 70
    1
  9
$MEASUREMENT
 70
    1
  9
$CELWEIGHT
370
   -1
  9
$ENDCAPS
280
    0
  9
$JOINSTYLE
280
    0
  9
$LWDISPLAY
290
    0
  9
$INSUNITS
 70
    4
  9
$HYPERLINKBASE
  1

  9
$STYLESHEET
  1

  9
$XEDIT
290
    1
  9
$CEPSNTYPE
380
    0
  9
$PSTYLEMODE
290
    1
  9
$EXTNAMES
290
    1
  9
$PSVPSCALE
 40
0.9090909090909091
  9
$OLESTARTUP
290
    0
  9
$SORTENTS
280
  127
  9
$INDEXCTL
280
    0
  9
$HIDETEXT
280
    1
  9
$XCLIPFRAME
290
    0
  9
$HALOGAP
280
    0
  9
$OBSCOLOR
 70
  257
  9
$OBSLTYPE
280
    0
  9
$INTERSECTIONDISPLAY
280
    0
  9
$INTERSECTIONCOLOR
 70
  257
  9
$DIMASSOC
280
    1
  9
$PROJECTNAME
  1

  9
$CAMERADISPLAY
290
    0
  9
$LENSLENGTH
 40
50
  9
$CAMERAHEIGHT
 40
0
  9
$STEPSPERSEC
 40
2
  9
$STEPSIZE
 40
50
  9
$3DDWFPREC
 40
2
  9
$PSOLWIDTH
 40
5
  9
$PSOLHEIGHT
 40
80
  9
$LOFTANG1
 40
1.570796326794897
  9
$LOFTANG2
 40
1.570796326794897
  9
$LOFTMAG1
 40
0
  9
$LOFTMAG2
 40
0
  9
$LOFTPARAM
 70
    7
  9
$LOFTNORMALS
280
    1
  9
$LATITUDE
 40
1
  9
$LONGITUDE
 40
1
  9
$NORTHDIRECTION
 40
0
  9
$TIMEZONE
 70
-8000
  9
$LIGHTGLYPHDISPLAY
280
    1
  9
$TILEMODELIGHTSYNCH
280
    1
  9
$SOLIDHIST
280
    1
  9
$SHOWHIST
280
    1
  9
$DWFFRAME
280
    2
  9
$DGNFRAME
280
    0
  9
$REALWORLDSCALE
290
    1
  9
$INTERFERECOLOR
 62
    1
  9
$CSHADOW
280
    0
  9
$SHADOWPLANELOCATION
 40
0
  0
ENDSEC
  0
SECTION
  2
CLASSES
  0
ENDSEC
  0
SECTION
  2
TABLES
  0
TABLE
  2
VPORT
  5
8
330
0
100
AcDbSymbolTable
 70
    1
  0
VPORT
  5
31
330
2
100
AcDbSymbolTableRecord
100
AcDbViewportTableRecord
  2
*ACTIVE
 70
    0
 10
0
 20
0
 11
1
 21
1
 12
371.3142857142957
 22
138.6321428571466
 13
0
 23
0
 14
10
 24
10
 15
10
 25
10
 16
0
 26
0
 36
1
 17
0
 27
0
 37
0
 40
324.4928571428659
 41
1.957340025094103
 42
50
 43
0
 44
0
 50
0
 51
0
 71
    0
 72
  100
 73
    1
 74
    3
 75
    0
 76
    1
 77
    0
 78
    0
281
    0
 65
    1
110
0
120
0
130
0
111
1
121
0
131
0
112
0
122
1
132
0
 79
    0
146
0
348
10020
 60
    7
 61
    5
292
1
282
    1
141
0
142
0
 63
  250
421
3358443
  0
ENDTAB
  0
TABLE
  2
LTYPE
  5
5
330
0
100
AcDbSymbolTable
 70
    4
  0
LTYPE
  5
14
330
5
100
AcDbSymbolTableRecord
100
AcDbLinetypeTableRecord
  2
ByBlock
 70
    0
  3

 72
   65
 73
    0
 40
0
  0
LTYPE
  5
15
330
5
100
AcDbSymbolTableRecord
100
AcDbLinetypeTableRecord
  2
ByLayer
 70
    0
  3

 72
   65
 73
    0
 40
0
  0
LTYPE
  5
16
330
5
100
AcDbSymbolTableRecord
100
AcDbLinetypeTableRecord
  2
Continuous
 70
    0
  3
Solid line
 72
   65
 73
    0
 40
0
  0
LTYPE
  5
32
330
5
100
AcDbSymbolTableRecord
100
AcDbLinetypeTableRecord
  2
DOT
 70
    0
  3
Dot . . . . . . . . . . . . . . . . . . . . . .
 72
   65
 73
    2
 40
6.35
 49
0
 74
    0
 49
-6.35
 74
    0
  0
LTYPE
  5
33
330
5
100
AcDbSymbolTableRecord
100
AcDbLinetypeTableRecord
  2
DOTTINY
 70
    0
  3
Dot (.15x) .....................................
 72
   65
 73
    2
 40
0.9525
 49
0
 74
    0
 49
-0.9525
 74
    0
  0
LTYPE
  5
34
330
5
100
AcDbSymbolTableRecord
100
AcDbLinetypeTableRecord
  2
DOT2
 70
    0
  3
Dot (.5x) .....................................
 72
   65
 73
    2
 40
3.175
 49
0
 74
    0
 49
-3.175
 74
    0
  0
LTYPE
  5
35
330
5
100
AcDbSymbolTableRecord
100
AcDbLinetypeTableRecord
  2
DOTX2
 70
    0
  3
Dot (2x) .  .  .  .  .  .  .  .  .  .  .  .  .
 72
   65
 73
    2
 40
12.7
 49
0
 74
    0
 49
-12.7
 74
    0
  0
LTYPE
  5
36
330
5
100
AcDbSymbolTableRecord
100
AcDbLinetypeTableRecord
  2
DASHED
 70
    0
  3
Dashed _ _ _ _ _ _ _ _ _ _ _ _ _ _ _ _ _
 72
   65
 73
    2
 40
19.05
 49
12.7
 74
    0
 49
-6.35
 74
    0
  0
LTYPE
  5
37
330
5
100
AcDbSymbolTableRecord
100
AcDbLinetypeTableRecord
  2
DASHEDTINY
 70
    0
  3
Dashed (.15x) _ _ _ _ _ _ _ _ _ _ _ _ _ _ _ _ _
 72
   65
 73
    2
 40
2.8575
 49
1.905
 74
    0
 49
-0.9525
 74
    0
  0
LTYPE
  5
38
330
5
100
AcDbSymbolTableRecord
100
AcDbLinetypeTableRecord
  2
DASHED2
 70
    0
  3
Dashed (.5x) _ _ _ _ _ _ _ _ _ _ _ _ _ _ _ _ _
 72
   65
 73
    2
 40
9.524999999999999
 49
6.35
 74
    0
 49
-3.175
 74
    0
  0
LTYPE
  5
39
330
5
100
AcDbSymbolTableRecord
100
AcDbLinetypeTableRecord
  2
DASHEDX2
 70
    0
  3
Dashed (2x) ____  ____  ____  ____  ____  ___
 72
   65
 73
    2
 40
38.09999999999999
 49
25.4
 74
    0
 49
-12.7
 74
    0
  0
LTYPE
  5
3A
330
5
100
AcDbSymbolTableRecord
100
AcDbLinetypeTableRecord
  2
DASHDOT
 70
    0
  3
Dash dot __ . __ . __ . __ . __ . __ . __ . __
 72
   65
 73
    4
 40
25.4
 49
12.7
 74
    0
 49
-6.35
 74
    0
 49
0
 74
    0
 49
-6.35
 74
    0
  0
LTYPE
  5
3B
330
5
100
AcDbSymbolTableRecord
100
AcDbLinetypeTableRecord
  2
DASHDOTTINY
 70
    0
  3
Dash dot (.15x) _._._._._._._._._._._._._._._.
 72
   65
 73
    4
 40
3.81
 49
1.905
 74
    0
 49
-0.9525
 74
    0
 49
0
 74
    0
 49
-0.9525
 74
    0
  0
LTYPE
  5
3C
330
5
100
AcDbSymbolTableRecord
100
AcDbLinetypeTableRecord
  2
DASHDOT2
 70
    0
  3
Dash dot (.5x) _._._._._._._._._._._._._._._.
 72
   65
 73
    4
 40
12.7
 49
6.35
 74
    0
 49
-3.175
 74
    0
 49
0
 74
    0
 49
-3.175
 74
    0
  0
LTYPE
  5
3D
330
5
100
AcDbSymbolTableRecord
100
AcDbLinetypeTableRecord
  2
DASHDOTX2
 70
    0
  3
Dash dot (2x) ____  .  ____  .  ____  .  ___
 72
   65
 73
    4
 40
50.8
 49
25.4
 74
    0
 49
-12.7
 74
    0
 49
0
 74
    0
 49
-12.7
 74
    0
  0
LTYPE
  5
3E
330
5
100
AcDbSymbolTableRecord
100
AcDbLinetypeTableRecord
  2
DIVIDE
 70
    0
  3
Divide ____ . . ____ . . ____ . . ____ . . ____
 72
   65
 73
    6
 40
31.75
 49
12.7
 74
    0
 49
-6.35
 74
    0
 49
0
 74
    0
 49
-6.35
 74
    0
 49
0
 74
    0
 49
-6.35
 74
    0
  0
LTYPE
  5
3F
330
5
100
AcDbSymbolTableRecord
100
AcDbLinetypeTableRecord
  2
DIVIDETINY
 70
    0
  3
Divide (.15x) __..__..__..__..__..__..__..__.._
 72
   65
 73
    6
 40
4.7625
 49
1.905
 74
    0
 49
-0.9525
 74
    0
 49
0
 74
    0
 49
-0.9525
 74
    0
 49
0
 74
    0
 49
-0.9525
 74
    0
  0
LTYPE
  5
40
330
5
100
AcDbSymbolTableRecord
100
AcDbLinetypeTableRecord
  2
DIVIDE2
 70
    0
  3
Divide (.5x) __..__..__..__..__..__..__..__.._
 72
   65
 73
    6
 40
15.875
 49
6.35
 74
    0
 49
-3.175
 74
    0
 49
0
 74
    0
 49
-3.175
 74
    0
 49
0
 74
    0
 49
-3.175
 74
    0
  0
LTYPE
  5
41
330
5
100
AcDbSymbolTableRecord
100
AcDbLinetypeTableRecord
  2
DIVIDEX2
 70
    0
  3
Divide (2x) ________  .  .  ________  .  .  _
 72
   65
 73
    6
 40
63.5
 49
25.4
 74
    0
 49
-12.7
 74
    0
 49
0
 74
    0
 49
-12.7
 74
    0
 49
0
 74
    0
 49
-12.7
 74
    0
  0
LTYPE
  5
42
330
5
100
AcDbSymbolTableRecord
100
AcDbLinetypeTableRecord
  2
BORDER
 70
    0
  3
Border __ __ . __ __ . __ __ . __ __ . __ __ .
 72
   65
 73
    6
 40
44.45
 49
12.7
 74
    0
 49
-6.35
 74
    0
 49
12.7
 74
    0
 49
-6.35
 74
    0
 49
0
 74
    0
 49
-6.35
 74
    0
  0
LTYPE
  5
43
330
5
100
AcDbSymbolTableRecord
100
AcDbLinetypeTableRecord
  2
BORDERTINY
 70
    0
  3
Border (.15x) __.__.__.__.__.__.__.__.__.__.__.
 72
   65
 73
    6
 40
6.6675
 49
1.905
 74
    0
 49
-0.9525
 74
    0
 49
1.905
 74
    0
 49
-0.9525
 74
    0
 49
0
 74
    0
 49
-0.9525
 74
    0
  0
LTYPE
  5
44
330
5
100
AcDbSymbolTableRecord
100
AcDbLinetypeTableRecord
  2
BORDER2
 70
    0
  3
Border (.5x) __.__.__.__.__.__.__.__.__.__.__.
 72
   65
 73
    6
 40
22.225
 49
6.35
 74
    0
 49
-3.175
 74
    0
 49
6.35
 74
    0
 49
-3.175
 74
    0
 49
0
 74
    0
 49
-3.175
 74
    0
  0
LTYPE
  5
45
330
5
100
AcDbSymbolTableRecord
100
AcDbLinetypeTableRecord
  2
BORDERX2
 70
    0
  3
Border (2x) ____  ____  .  ____  ____  .  ___
 72
   65
 73
    6
 40
88.89999999999999
 49
25.4
 74
    0
 49
-12.7
 74
    0
 49
25.4
 74
    0
 49
-12.7
 74
    0
 49
0
 74
    0
 49
-12.7
 74
    0
  0
LTYPE
  5
46
330
5
100
AcDbSymbolTableRecord
100
AcDbLinetypeTableRecord
  2
CENTER
 70
    0
  3
Center ____ _ ____ _ ____ _ ____ _ ____ _ ____
 72
   65
 73
    4
 40
50.8
 49
31.75
 74
    0
 49
-6.35
 74
    0
 49
6.35
 74
    0
 49
-6.35
 74
    0
  0
LTYPE
  5
47
330
5
100
AcDbSymbolTableRecord
100
AcDbLinetypeTableRecord
  2
CENTERTINY
 70
    0
  3
Center (.15x) ___ _ ___ _ ___ _ ___ _ ___ _ ___
 72
   65
 73
    4
 40
7.62
 49
4.7625
 74
    0
 49
-0.9525
 74
    0
 49
0.9525
 74
    0
 49
-0.9525
 74
    0
  0
LTYPE
  5
48
330
5
100
AcDbSymbolTableRecord
100
AcDbLinetypeTableRecord
  2
CENTER2
 70
    0
  3
Center (.5x) ___ _ ___ _ ___ _ ___ _ ___ _ ___
 72
   65
 73
    4
 40
28.575
 49
19.05
 74
    0
 49
-3.175
 74
    0
 49
3.175
 74
    0
 49
-3.175
 74
    0
  0
LTYPE
  5
49
330
5
100
AcDbSymbolTableRecord
100
AcDbLinetypeTableRecord
  2
CENTERX2
 70
    0
  3
Center (2x) ________  __  ________  __  _____
 72
   65
 73
    4
 40
101.6
 49
63.5
 74
    0
 49
-12.7
 74
    0
 49
12.7
 74
    0
 49
-12.7
 74
    0
  0
ENDTAB
  0
TABLE
  2
LAYER
  5
2
330
0
100
AcDbSymbolTable
 70
    1
  0
LAYER
  5
10
330
2
100
AcDbSymbolTableRecord
100
AcDbLayerTableRecord
  2
0
 70
    0
 62
    7
  6
CONTINUOUS
370
    0
390
F
  0
LAYER
  5
4A
330
2
100
AcDbSymbolTableRecord
100
AcDbLayerTableRecord
  2
cartiglio
 70
    0
 62
    7
  6
CONTINUOUS
370
   13
390
F
  0
LAYER
  5
4B
330
2
100
AcDbSymbolTableRecord
100
AcDbLayerTableRecord
  2
cartiglio2
 70
    0
 62
    7
  6
CONTINUOUS
370
   13
390
F
  0
LAYER
  5
4C
330
2
100
AcDbSymbolTableRecord
100
AcDbLayerTableRecord
  2
controllo
 70
    0
 62
    2
  6
CONTINUOUS
370
   13
390
F
  0
LAYER
  5
4D
330
2
100
AcDbSymbolTableRecord
100
AcDbLayerTableRecord
  2
freno
 70
    0
 62
    4
  6
CONTINUOUS
370
   13
390
F
  0
LAYER
  5
4E
330
2
100
AcDbSymbolTableRecord
100
AcDbLayerTableRecord
  2
panello
 70
    0
 62
    5
  6
CONTINUOUS
370
   13
390
F
  0
LAYER
  5
4F
330
2
100
AcDbSymbolTableRecord
100
AcDbLayerTableRecord
  2
potenza
 70
    0
 62
    1
  6
CONTINUOUS
370
   13
390
F
  0
ENDTAB
  0
TABLE
  2
STYLE
  5
3
330
0
100
AcDbSymbolTable
 70
    3
  0
STYLE
  5
50
330
2
100
AcDbSymbolTableRecord
100
AcDbTextStyleTableRecord
  2
STANDARD
 70
    0
 40
0
 41
1
 50
0
 71
    0
 42
1
  3
STANDARD
  4

  0
STYLE
  5
51
330
2
100
AcDbSymbolTableRecord
100
AcDbTextStyleTableRecord
  2
standard
 70
    0
 40
0
 41
1
 50
0
 71
    0
 42
1
  3
standard
  4

  0
ENDTAB
  0
TABLE
  2
VIEW
  5
6
330
0
100
AcDbSymbolTable
 70
    0
  0
ENDTAB
  0
TABLE
  2
UCS
  5
7
330
0
100
AcDbSymbolTable
 70
    0
  0
ENDTAB
  0
TABLE
  2
APPID
  5
9
330
0
100
AcDbSymbolTable
 70
    1
  0
APPID
  5
12
330
9
100
AcDbSymbolTableRecord
100
AcDbRegAppTableRecord
  2
ACAD
 70
    0
  0
APPID
  5
52
330
9
100
AcDbSymbolTableRecord
100
AcDbRegAppTableRecord
  2
LibreCad
 70
    0
  0
ENDTAB
  0
TABLE
  2
DIMSTYLE
  5
A
330
0
100
AcDbSymbolTable
 70
    1
100
AcDbDimStyleTable
 71
    1
  0
DIMSTYLE
105
53
330
A
100
AcDbSymbolTableRecord
100
AcDbDimStyleTableRecord
  2
Standard
 70
    0
 40
2.5
 41
2.5
 42
0.625
 43
0.38
 44
1.25
 45
0
 46
0
 47
0
 48
0
 49
1
140
2.5
141
0.09
142
0
143
25.4
144
1
145
0
146
1
147
0.625
148
0
 71
    0
 72
    0
 73
    0
 74
    1
 75
    0
 76
    0
 77
    0
 78
    8
 79
    0
170
    0
171
    2
172
    0
173
    0
174
    0
175
    0
176
    0
177
    0
178
    0
179
    0
271
    2
272
    4
273
    2
274
    2
275
    0
276
    0
277
    2
278
   44
279
    0
280
    0
281
    0
282
    0
283
    1
284
    0
285
    0
286
    0
288
    0
289
    3
340
standard
341

371
   -2
372
   -2
  0
ENDTAB
  0
TABLE
  2
BLOCK_RECORD
  5
1
330
0
100
AcDbSymbolTable
 70
    2
  0
BLOCK_RECORD
  5
1F
330
1
100
AcDbSymbolTableRecord
100
AcDbBlockTableRecord
  2
*Model_Space
 70
    0
280
    1
281
    0
  0
BLOCK_RECORD
  5
1E
330
1
100
AcDbSymbolTableRecord
100
AcDbBlockTableRecord
  2
*Paper_Space
 70
    0
280
    1
281
    0
  0
ENDTAB
  0
ENDSEC
  0
SECTION
  2
BLOCKS
  0
BLOCK
  5
20
330
1F
100
AcDbEntity
  8
0
100
AcDbBlockBegin
  2
*Model_Space
 70
    0
 10
0
 20
0
 30
0
  3
*Model_Space
  1

  0
ENDBLK
  5
21
330
1F
100
AcDbEntity
  8
0
100
AcDbBlockEnd
  0
BLOCK
  5
1C
330
1B
100
AcDbEntity
  8
0
100
AcDbBlockBegin
  2
*Paper_Space
 70
    0
 10
0
 20
0
 30
0
  3
*Paper_Space
  1

  0
ENDBLK
  5
1D
330
1F
100
AcDbEntity
  8
0
100
AcDbBlockEnd
  0
ENDSEC
  0
SECTION
  2
ENTITIES
  0
HATCH
  5
54
100
AcDbEntity
  8
potenza
  6
ByLayer
 62
  256
370
   -1
100
AcDbHatch
 10
0
 20
0
 30
0
210
0
220
0
230
1
  2
SOLID
 70
    1
 71
    0
 91
    1
 92
    0
 93
    1
 72
    2
 10
400
 20
90
 40
1
 50
0
 51
360
 73
    1
 97
    0
 75
    0
 76
    1
 98
    0
  0
HATCH
  5
55
100
AcDbEntity
  8
potenza
  6
ByLayer
 62
  256
370
   -1
100
AcDbHatch
 10
0
 20
0
 30
0
210
0
220
0
230
1
  2
SOLID
 70
    1
 71
    0
 91
    1
 92
    0
 93
    1
 72
    2
 10
390
 20
95
 40
1
 50
0
 51
360
 73
    1
 97
    0
 75
    0
 76
    1
 98
    0
  0
HATCH
  5
56
100
AcDbEntity
  8
potenza
  6
ByLayer
 62
  256
370
   -1
100
AcDbHatch
 10
0
 20
0
 30
0
210
0
220
0
230
1
  2
SOLID
 70
    1
 71
    0
 91
    1
 92
    0
 93
    1
 72
    2
 10
530
 20
165
 40
1
 50
0
 51
360
 73
    1
 97
    0
 75
    0
 76
    1
 98
    0
  0
HATCH
  5
57
100
AcDbEntity
  8
potenza
  6
ByLayer
 62
  256
370
   -1
100
AcDbHatch
 10
0
 20
0
 30
0
210
0
220
0
230
1
  2
SOLID
 70
    1
 71
    0
 91
    1
 92
    0
 93
    1
 72
    2
 10
455
 20
185
 40
1
 50
0
 51
360
 73
    1
 97
    0
 75
    0
 76
    1
 98
    0
  0
HATCH
  5
58
100
AcDbEntity
  8
potenza
  6
ByLayer
 62
  256
370
   -1
100
AcDbHatch
 10
0
 20
0
 30
0
210
0
220
0
230
1
  2
SOLID
 70
    1
 71
    0
 91
    1
 92
    0
 93
    1
 72
    2
 10
445
 20
180
 40
1
 50
0
 51
360
 73
    1
 97
    0
 75
    0
 76
    1
 98
    0
  0
HATCH
  5
59
100
AcDbEntity
  8
potenza
  6
ByLayer
 62
  256
370
   -1
100
AcDbHatch
 10
0
 20
0
 30
0
210
0
220
0
230
1
  2
SOLID
 70
    1
 71
    0
 91
    1
 92
    0
 93
    1
 72
    2
 10
520
 20
170
 40
1
 50
0
 51
360
 73
    1
 97
    0
 75
    0
 76
    1
 98
    0
  0
HATCH
  5
5A
100
AcDbEntity
  8
potenza
  6
ByLayer
 62
  256
370
   -1
100
AcDbHatch
 10
0
 20
0
 30
0
210
0
220
0
230
1
  2
SOLID
 70
    1
 71
    0
 91
    1
 92
    0
 93
    1
 72
    2
 10
400
 20
180
 40
1
 50
0
 51
360
 73
    1
 97
    0
 75
    0
 76
    1
 98
    0
  0
HATCH
  5
5B
100
AcDbEntity
  8
potenza
  6
ByLayer
 62
  256
370
   -1
100
AcDbHatch
 10
0
 20
0
 30
0
210
0
220
0
230
1
  2
SOLID
 70
    1
 71
    0
 91
    1
 92
    0
 93
    1
 72
    2
 10
390
 20
185
 40
1
 50
0
 51
360
 73
    1
 97
    0
 75
    0
 76
    1
 98
    0
  0
HATCH
  5
5C
100
AcDbEntity
  8
potenza
  6
ByLayer
 62
  256
370
   -1
100
AcDbHatch
 10
0
 20
0
 30
0
210
0
220
0
230
1
  2
SOLID
 70
    1
 71
    0
 91
    1
 92
    0
 93
    1
 72
    2
 10
380
 20
190
 40
1
 50
0
 51
360
 73
    1
 97
    0
 75
    0
 76
    1
 98
    0
  0
ARC
  5
5D
100
AcDbEntity
  8
controllo
  6
ByLayer
 62
  256
370
   13
100
AcDbCircle
 10
0
 20
0
 40
0
100
AcDbArc
 50
0
 51
0
  0
LINE
  5
5E
100
AcDbEntity
  8
potenza
  6
ByLayer
 62
  256
370
   13
100
AcDbLine
 10
370
 20
190
 11
600
 21
190
  0
LINE
  5
5F
100
AcDbEntity
  8
potenza
  6
ByLayer
 62
  256
370
   13
100
AcDbLine
 10
370
 20
185
 11
600
 21
185
  0
LINE
  5
60
100
AcDbEntity
  8
potenza
  6
ByLayer
 62
  256
370
   13
100
AcDbLine
 10
370
 20
180
 11
600
 21
180
  0
LWPOLYLINE
  5
61
100
AcDbEntity
  8
potenza
  6
ByLayer
 62
  256
370
   13
100
AcDbPolyline
 90
    4
 70
    1
 43
0
 10
370
 20
189
 10
368
 20
189
 10
368
 20
191
 10
370
 20
191
  0
LWPOLYLINE
  5
62
100
AcDbEntity
  8
potenza
  6
ByLayer
 62
  256
370
   13
100
AcDbPolyline
 90
    4
 70
    1
 43
0
 10
368
 20
186
 10
370
 20
186
 10
370
 20
184
 10
368
 20
184
  0
LWPOLYLINE
  5
63
100
AcDbEntity
  8
potenza
  6
ByLayer
 62
  256
370
   13
100
AcDbPolyline
 90
    4
 70
    1
 43
0
 10
370
 20
181
 10
368
 20
181
 10
368
 20
179
 10
370
 20
179
  0
LINE
  5
64
100
AcDbEntity
  8
potenza
  6
ByLayer
 62
  256
370
   13
100
AcDbLine
 10
380
 20
190
 11
380
 21
170
  0
LINE
  5
65
100
AcDbEntity
  8
potenza
  6
ByLayer
 62
  256
370
   13
100
AcDbLine
 10
390
 20
185
 11
390
 21
170
  0
LINE
  5
66
100
AcDbEntity
  8
potenza
  6
ByLayer
 62
  256
370
   13
100
AcDbLine
 10
400
 20
180
 11
400
 21
170
  0
LINE
  5
67
100
AcDbEntity
  8
potenza
  6
ByLayer
 62
  256
370
   13
100
AcDbLine
 10
380
 20
150
 11
380
 21
110
  0
ARC
  5
68
100
AcDbEntity
  8
potenza
  6
ByLayer
 62
  256
370
   13
100
AcDbCircle
 10
380
 20
111
 40
1
100
AcDbArc
 50
90
 51
270
  0
LINE
  5
69
100
AcDbEntity
  8
potenza
  6
ByLayer
 62
  256
370
   13
100
AcDbLine
 10
380
 20
100
 11
375
 21
110
  0
LINE
  5
6A
100
AcDbEntity
  8
potenza
  6
ByLayer
 62
  256
370
   13
100
AcDbLine
 10
390
 20
150
 11
390
 21
110
  0
ARC
  5
6B
100
AcDbEntity
  8
potenza
  6
ByLayer
 62
  256
370
   13
100
AcDbCircle
 10
390
 20
111
 40
1
100
AcDbArc
 50
90
 51
270
  0
LINE
  5
6C
100
AcDbEntity
  8
potenza
  6
ByLayer
 62
  256
370
   13
100
AcDbLine
 10
390
 20
100
 11
385
 21
110
  0
LINE
  5
6D
100
AcDbEntity
  8
potenza
  6
ByLayer
 62
  256
370
   13
100
AcDbLine
 10
400
 20
150
 11
400
 21
110
  0
ARC
  5
6E
100
AcDbEntity
  8
potenza
  6
ByLayer
 62
  256
370
   13
100
AcDbCircle
 10
400
 20
111
 40
1
100
AcDbArc
 50
90
 51
270
  0
LINE
  5
6F
100
AcDbEntity
  8
potenza
  6
ByLayer
 62
  256
370
   13
100
AcDbLine
 10
400
 20
100
 11
395
 21
110
  0
LINE
  5
70
100
AcDbEntity
  8
potenza
  6
ByLayer
 62
  256
370
   13
100
AcDbLine
 10
380
 20
70
 11
380
 21
67
  0
LINE
  5
71
100
AcDbEntity
  8
potenza
  6
ByLayer
 62
  256
370
   13
100
AcDbLine
 10
380
 20
67
 11
375
 21
67
  0
LINE
  5
72
100
AcDbEntity
  8
potenza
  6
ByLayer
 62
  256
370
   13
100
AcDbLine
 10
375
 20
67
 11
375
 21
63
  0
LINE
  5
73
100
AcDbEntity
  8
potenza
  6
ByLayer
 62
  256
370
   13
100
AcDbLine
 10
375
 20
63
 11
380
 21
63
  0
LINE
  5
74
100
AcDbEntity
  8
potenza
  6
ByLayer
 62
  256
370
   13
100
AcDbLine
 10
380
 20
63
 11
380
 21
60
  0
LINE
  5
75
100
AcDbEntity
  8
potenza
  6
ByLayer
 62
  256
370
   13
100
AcDbLine
 10
390
 20
70
 11
390
 21
67
  0
LINE
  5
76
100
AcDbEntity
  8
potenza
  6
ByLayer
 62
  256
370
   13
100
AcDbLine
 10
390
 20
67
 11
385
 21
67
  0
LINE
  5
77
100
AcDbEntity
  8
potenza
  6
ByLayer
 62
  256
370
   13
100
AcDbLine
 10
385
 20
67
 11
385
 21
63
  0
LINE
  5
78
100
AcDbEntity
  8
potenza
  6
ByLayer
 62
  256
370
   13
100
AcDbLine
 10
385
 20
63
 11
390
 21
63
  0
LINE
  5
79
100
AcDbEntity
  8
potenza
  6
ByLayer
 62
  256
370
   13
100
AcDbLine
 10
390
 20
63
 11
390
 21
60
  0
LINE
  5
7A
100
AcDbEntity
  8
potenza
  6
ByLayer
 62
  256
370
   13
100
AcDbLine
 10
400
 20
70
 11
400
 21
67
  0
LINE
  5
7B
100
AcDbEntity
  8
potenza
  6
ByLayer
 62
  256
370
   13
100
AcDbLine
 10
400
 20
67
 11
395
 21
67
  0
LINE
  5
7C
100
AcDbEntity
  8
potenza
  6
ByLayer
 62
  256
370
   13
100
AcDbLine
 10
395
 20
67
 11
395
 21
63
  0
LINE
  5
7D
100
AcDbEntity
  8
potenza
  6
ByLayer
 62
  256
370
   13
100
AcDbLine
 10
395
 20
63
 11
400
 21
63
  0
LINE
  5
7E
100
AcDbEntity
  8
potenza
  6
ByLayer
 62
  256
370
   13
100
AcDbLine
 10
400
 20
63
 11
400
 21
60
  0
LWPOLYLINE
  5
7F
100
AcDbEntity
  8
potenza
  6
ByLayer
 62
  256
370
   13
100
AcDbPolyline
 90
    4
 70
    1
 43
0
 10
370
 20
70
 10
410
 20
70
 10
410
 20
60
 10
370
 20
60
  0
CIRCLE
  5
80
100
AcDbEntity
  8
potenza
  6
ByLayer
 62
  256
370
   13
100
AcDbCircle
 10
390
 20
30
 40
10
  0
LINE
  5
81
100
AcDbEntity
  8
potenza
  6
ByLayer
 62
  256
370
   13
100
AcDbLine
 10
379
 20
51
 11
381
 21
51
  0
LINE
  5
82
100
AcDbEntity
  8
potenza
  6
ByLayer
 62
  256
370
   13
100
AcDbLine
 10
381
 20
51
 11
381
 21
49
  0
LINE
  5
83
100
AcDbEntity
  8
potenza
  6
ByLayer
 62
  256
370
   13
100
AcDbLine
 10
381
 20
49
 11
379
 21
49
  0
LINE
  5
84
100
AcDbEntity
  8
potenza
  6
ByLayer
 62
  256
370
   13
100
AcDbLine
 10
379
 20
49
 11
379
 21
51
  0
LINE
  5
85
100
AcDbEntity
  8
potenza
  6
ByLayer
 62
  256
370
   13
100
AcDbLine
 10
389
 20
51
 11
391
 21
51
  0
LINE
  5
86
100
AcDbEntity
  8
potenza
  6
ByLayer
 62
  256
370
   13
100
AcDbLine
 10
391
 20
51
 11
391
 21
49
  0
LINE
  5
87
100
AcDbEntity
  8
potenza
  6
ByLayer
 62
  256
370
   13
100
AcDbLine
 10
391
 20
49
 11
389
 21
49
  0
LINE
  5
88
100
AcDbEntity
  8
potenza
  6
ByLayer
 62
  256
370
   13
100
AcDbLine
 10
389
 20
49
 11
389
 21
51
  0
LINE
  5
89
100
AcDbEntity
  8
potenza
  6
ByLayer
 62
  256
370
   13
100
AcDbLine
 10
399
 20
51
 11
401
 21
51
  0
LINE
  5
8A
100
AcDbEntity
  8
potenza
  6
ByLayer
 62
  256
370
   13
100
AcDbLine
 10
401
 20
51
 11
401
 21
49
  0
LINE
  5
8B
100
AcDbEntity
  8
potenza
  6
ByLayer
 62
  256
370
   13
100
AcDbLine
 10
401
 20
49
 11
399
 21
49
  0
LINE
  5
8C
100
AcDbEntity
  8
potenza
  6
ByLayer
 62
  256
370
   13
100
AcDbLine
 10
399
 20
49
 11
399
 21
51
  0
LINE
  5
8D
100
AcDbEntity
  8
potenza
  6
ByLayer
 62
  256
370
   13
100
AcDbLine
 10
380
 20
60
 11
380
 21
51
  0
LINE
  5
8E
100
AcDbEntity
  8
potenza
  6
ByLayer
 62
  256
370
   13
100
AcDbLine
 10
380.5
 20
49
 11
385.5278640450004
 21
38.94427190999916
  0
LINE
  5
8F
100
AcDbEntity
  8
potenza
  6
ByLayer
 62
  256
370
   13
100
AcDbLine
 10
390
 20
49
 11
390
 21
40
  0
LINE
  5
90
100
AcDbEntity
  8
potenza
  6
ByLayer
 62
  256
370
   13
100
AcDbLine
 10
400
 20
51
 11
400
 21
60
  0
LINE
  5
91
100
AcDbEntity
  8
potenza
  6
ByLayer
 62
  256
370
   13
100
AcDbLine
 10
394.4721359549996
 20
38.94427190999916
 11
399.5
 21
49
  0
LINE
  5
92
100
AcDbEntity
  8
potenza
  6
ByLayer
 62
  256
370
   13
100
AcDbLine
 10
390
 20
51
 11
390
 21
60
  0
MTEXT
  5
93
100
AcDbEntity
  8
potenza
  6
ByLayer
 62
  256
370
   13
100
AcDbMText
 10
385
 20
36
 30
0
 40
4
 41
10.22222222222222
 71
    1
 72
    1
  1
MAT
  7
standard
210
0
220
0
230
1
 50
0
 73
    2
 44
1
  0
MTEXT
  5
94
100
AcDbEntity
  8
potenza
  6
ByLayer
 62
  256
370
   13
100
AcDbMText
 10
389
 20
31
 30
0
 40
4
 41
4.888888888889137
 71
    1
 72
    1
  1
3~
  7
standard
210
0
220
0
230
1
 50
0
 73
    2
 44
1
  0
CIRCLE
  5
95
100
AcDbEntity
  8
potenza
  6
ByLayer
 62
  256
370
   13
100
AcDbCircle
 10
445
 20
140
 40
11.18033988749895
  0
CIRCLE
  5
96
100
AcDbEntity
  8
potenza
  6
ByLayer
 62
  256
370
   13
100
AcDbCircle
 10
445
 20
128.8196601125011
 40
11.18033988749895
  0
LWPOLYLINE
  5
97
100
AcDbEntity
  8
potenza
  6
ByLayer
 62
  256
370
   13
100
AcDbPolyline
 90
    4
 70
    1
 43
0
 10
510
 20
140
 10
540
 20
140
 10
540
 20
130
 10
510
 20
130
  0
LINE
  5
98
100
AcDbEntity
  8
potenza
  6
ByLayer
 62
  256
370
   13
100
AcDbLine
 10
516
 20
135
 11
520
 21
135
  0
LINE
  5
99
100
AcDbEntity
  8
potenza
  6
ByLayer
 62
  256
370
   13
100
AcDbLine
 10
520
 20
135
 11
520
 21
138
  0
LINE
  5
9A
100
AcDbEntity
  8
potenza
  6
ByLayer
 62
  256
370
   13
100
AcDbLine
 10
520
 20
138
 11
525
 21
135
  0
LINE
  5
9B
100
AcDbEntity
  8
potenza
  6
ByLayer
 62
  256
370
   13
100
AcDbLine
 10
525
 20
135
 11
520
 21
132
  0
LINE
  5
9C
100
AcDbEntity
  8
potenza
  6
ByLayer
 62
  256
370
   13
100
AcDbLine
 10
520
 20
132
 11
520
 21
135
  0
LINE
  5
9D
100
AcDbEntity
  8
potenza
  6
ByLayer
 62
  256
370
   13
100
AcDbLine
 10
525
 20
138
 11
525
 21
132
  0
LINE
  5
9E
100
AcDbEntity
  8
potenza
  6
ByLayer
 62
  256
370
   13
100
AcDbLine
 10
525
 20
132
 11
525
 21
135
  0
LINE
  5
9F
100
AcDbEntity
  8
potenza
  6
ByLayer
 62
  256
370
   13
100
AcDbLine
 10
525
 20
135
 11
533
 21
135
  0
LINE
  5
A0
100
AcDbEntity
  8
potenza
  6
ByLayer
 62
  256
370
   13
100
AcDbLine
 10
450
 20
110
 11
470
 21
110
  0
LINE
  5
A1
100
AcDbEntity
  8
potenza
  6
ByLayer
 62
  256
370
   13
100
AcDbLine
 10
560
 20
170
 11
559
 21
172
  0
LINE
  5
A2
100
AcDbEntity
  8
potenza
  6
ByLayer
 62
  256
370
   13
100
AcDbLine
 10
559
 20
172
 11
570
 21
170
  0
LINE
  5
A3
100
AcDbEntity
  8
potenza
  6
ByLayer
 62
  256
370
   13
100
AcDbLine
 10
570
 20
170
 11
559
 21
168
  0
LINE
  5
A4
100
AcDbEntity
  8
potenza
  6
ByLayer
 62
  256
370
   13
100
AcDbLine
 10
559
 20
168
 11
560
 21
170
  0
LINE
  5
A5
100
AcDbEntity
  8
potenza
  6
ByLayer
 62
  256
370
   13
100
AcDbLine
 10
470
 20
170
 11
560
 21
170
  0
LINE
  5
A6
100
AcDbEntity
  8
potenza
  6
ByLayer
 62
  256
370
   13
100
AcDbLine
 10
520
 20
170
 11
520
 21
140
  0
LINE
  5
A7
100
AcDbEntity
  8
potenza
  6
ByLayer
 62
  256
370
   13
100
AcDbLine
 10
470
 20
110
 11
470
 21
170
  0
TEXT
  5
A8
100
AcDbEntity
  8
potenza
  6
ByLayer
 62
  256
370
   13
100
AcDbText
 10
364
 20
188
 30
0
 40
4
  1
U
 50
0
 41
1
 51
0
  7
standard
 71
    0
210
0
220
0
230
1
100
AcDbText
  0
TEXT
  5
A9
100
AcDbEntity
  8
potenza
  6
ByLayer
 62
  256
370
   13
100
AcDbText
 10
364
 20
183
 30
0
 40
4
  1
V
 50
0
 41
1
 51
0
  7
standard
 71
    0
210
0
220
0
230
1
100
AcDbText
  0
TEXT
  5
AA
100
AcDbEntity
  8
potenza
  6
ByLayer
 62
  256
370
   13
100
AcDbText
 10
363
 20
178
 30
0
 40
4
  1
W
 50
0
 41
1
 51
0
  7
standard
 71
    0
210
0
220
0
230
1
100
AcDbText
  0
TEXT
  5
AB
100
AcDbEntity
  8
potenza
  6
DASHED
 62
  256
370
   13
100
AcDbText
 10
365
 20
100
 30
0
 40
4
  1
KM1
 50
0
 41
1
 51
0
  7
standard
 71
    0
210
0
220
0
230
1
100
AcDbText
  0
LINE
  5
AC
100
AcDbEntity
  8
potenza
  6
DOT2
 62
  256
370
   13
100
AcDbLine
 10
378
 20
105
 11
397
 21
105
  0
TEXT
  5
AD
100
AcDbEntity
  8
potenza
  6
ByLayer
 62
  256
370
   13
100
AcDbText
 10
571
 20
168
 30
0
 40
4
  1
24V
 50
0
 41
1
 51
0
  7
standard
 71
    0
210
0
220
0
230
1
100
AcDbText
  0
TEXT
  5
AE
100
AcDbEntity
  8
potenza
  6
ByLayer
 62
  256
370
   13
100
AcDbText
 10
360
 20
60
 30
0
 40
4
  1
TS1
 50
0
 41
1
 51
0
  7
standard
 71
    0
210
0
220
0
230
1
100
AcDbText
  0
TEXT
  5
AF
100
AcDbEntity
  8
potenza
  6
ByLayer
 62
  256
370
   13
100
AcDbText
 10
430
 20
120
 30
0
 40
4
  1
T1
 50
0
 41
1
 51
0
  7
standard
 71
    0
210
0
220
0
230
1
100
AcDbText
  0
LINE
  5
B0
100
AcDbEntity
  8
potenza
  6
ByLayer
 62
  256
370
   13
100
AcDbLine
 10
450
 20
118.8196601125053
 11
450
 21
110
  0
LINE
  5
B1
100
AcDbEntity
  8
cartiglio
  6
ByLayer
 62
  256
370
   13
100
AcDbLine
 10
0
 20
0
 11
296.9999999999999
 21
-7.27416174170492e-014
  0
LINE
  5
B2
100
AcDbEntity
  8
cartiglio
  6
ByLayer
 62
  256
370
   13
100
AcDbLine
 10
2.449212707644755e-015
 20
8
 11
296.9999999999999
 21
7.999999999999927
  0
LINE
  5
B3
100
AcDbEntity
  8
cartiglio
  6
ByLayer
 62
  256
370
   13
100
AcDbLine
 10
2.449212707644755e-015
 20
8
 11
0
 21
0
  0
LINE
  5
B4
100
AcDbEntity
  8
cartiglio
  6
ByLayer
 62
  256
370
   13
100
AcDbLine
 10
60
 20
-2.842170943040401e-014
 11
60
 21
7.999999999999972
  0
LINE
  5
B5
100
AcDbEntity
  8
cartiglio
  6
ByLayer
 62
  256
370
   13
100
AcDbLine
 10
120
 20
-5.684341886080801e-014
 11
120
 21
7.999999999999943
  0
LINE
  5
B6
100
AcDbEntity
  8
cartiglio
  6
ByLayer
 62
  256
370
   13
100
AcDbLine
 10
180
 20
-8.526512829121202e-014
 11
180
 21
7.999999999999915
  0
LINE
  5
B7
100
AcDbEntity
  8
cartiglio
  6
ByLayer
 62
  256
370
   13
100
AcDbLine
 10
240
 20
-1.13686837721616e-013
 11
240
 21
7.999999999999886
  0
LINE
  5
B8
100
AcDbEntity
  8
cartiglio
  6
ByLayer
 62
  256
370
   13
100
AcDbLine
 10
220
 20
30
 11
220
 21
20
  0
LINE
  5
B9
100
AcDbEntity
  8
cartiglio
  6
ByLayer
 62
  256
370
   13
100
AcDbLine
 10
220
 20
20
 11
170
 21
20
  0
LINE
  5
BA
100
AcDbEntity
  8
cartiglio
  6
ByLayer
 62
  256
370
   13
100
AcDbLine
 10
170
 20
7.999999999999958
 11
170
 21
40
  0
LINE
  5
BB
100
AcDbEntity
  8
cartiglio
  6
ByLayer
 62
  256
370
   13
100
AcDbLine
 10
220
 20
7.999999999999947
 11
220
 21
30
  0
LINE
  5
BC
100
AcDbEntity
  8
cartiglio
  6
ByLayer
 62
  256
370
   13
100
AcDbLine
 10
170
 20
40
 11
288.9999999999999
 21
40
  0
LINE
  5
BD
100
AcDbEntity
  8
cartiglio
  6
ByLayer
 62
  256
370
   13
100
AcDbLine
 10
288.9999999999999
 20
30
 11
170
 21
30
  0
MTEXT
  5
BE
100
AcDbEntity
  8
cartiglio
  6
ByLayer
 62
  256
370
   13
100
AcDbMText
 10
173
 20
38
 30
0
 40
6
 41
79.66666975239126
 71
    1
 72
    1
  1
Banco sega cirolare\P
  7
standard
210
0
220
0
230
1
 50
0
 73
    2
 44
1
  0
MTEXT
  5
BF
100
AcDbEntity
  8
cartiglio
  6
ByLayer
 62
  256
370
   13
100
AcDbMText
 10
173
 20
28
 30
0
 40
6
 41
43.33333333333371
 71
    1
 72
    1
  1
06/12/2022\P
  7
standard
210
0
220
0
230
1
 50
0
 73
    2
 44
1
  0
MTEXT
  5
C0
100
AcDbEntity
  8
cartiglio
  6
ByLayer
 62
  256
370
   13
100
AcDbMText
 10
264
 20
38
 30
0
 40
6
 41
22.5
 71
    1
 72
    1
  1
P. 1/2
  7
standard
210
0
220
0
230
1
 50
0
 73
    2
 44
1
  0
MTEXT
  5
C1
100
AcDbEntity
  8
cartiglio
  6
ByLayer
 62
  256
370
   13
100
AcDbMText
 10
173
 20
17
 30
0
 40
6
 41
34.66666666666732
 71
    1
 72
    1
  1
Controllo\P
  7
standard
210
0
220
0
230
1
 50
0
 73
    2
 44
1
  0
LINE
  5
C2
100
AcDbEntity
  8
cartiglio
  6
ByLayer
 62
  256
370
   13
100
AcDbLine
 10
0
 20
210
 11
297
 21
210
  0
LINE
  5
C3
100
AcDbEntity
  8
cartiglio
  6
ByLayer
 62
  256
370
   13
100
AcDbLine
 10
0
 20
210
 11
-1.469527624586853e-015
 21
202
  0
LINE
  5
C4
100
AcDbEntity
  8
cartiglio
  6
ByLayer
 62
  256
370
   13
100
AcDbLine
 10
60
 20
202
 11
60
 21
210
  0
LINE
  5
C5
100
AcDbEntity
  8
cartiglio
  6
ByLayer
 62
  256
370
   13
100
AcDbLine
 10
120
 20
201.9999999999999
 11
120
 21
209.9999999999999
  0
LINE
  5
C6
100
AcDbEntity
  8
cartiglio
  6
ByLayer
 62
  256
370
   13
100
AcDbLine
 10
180
 20
201.9999999999999
 11
180
 21
209.9999999999999
  0
LINE
  5
C7
100
AcDbEntity
  8
cartiglio
  6
ByLayer
 62
  256
370
   13
100
AcDbLine
 10
240
 20
201.9999999999999
 11
240
 21
209.9999999999999
  0
LINE
  5
C8
100
AcDbEntity
  8
cartiglio
  6
ByLayer
 62
  256
370
   13
100
AcDbLine
 10
-1.469527624586853e-015
 20
202
 11
8
 21
202
  0
LINE
  5
C9
100
AcDbEntity
  8
cartiglio
  6
ByLayer
 62
  256
370
   13
100
AcDbLine
 10
8
 20
202
 11
297
 21
202
  0
MTEXT
  5
CA
100
AcDbEntity
  8
cartiglio
  6
ByLayer
 62
  256
370
   13
100
AcDbMText
 10
31
 20
208
 30
0
 40
4
 41
0.8888888888888888
 71
    1
 72
    1
  1
1\P
  7
standard
210
0
220
0
230
1
 50
0
 73
    2
 44
1
  0
MTEXT
  5
CB
100
AcDbEntity
  8
cartiglio
  6
ByLayer
 62
  256
370
   13
100
AcDbMText
 10
91
 20
208
 30
0
 40
4
 41
1.777777777777778
 71
    1
 72
    1
  1
2
  7
standard
210
0
220
0
230
1
 50
0
 73
    2
 44
1
  0
MTEXT
  5
CC
100
AcDbEntity
  8
cartiglio
  6
ByLayer
 62
  256
370
   13
100
AcDbMText
 10
150
 20
208
 30
0
 40
4
 41
1.777777777778026
 71
    1
 72
    1
  1
3
  7
standard
210
0
220
0
230
1
 50
0
 73
    2
 44
1
  0
MTEXT
  5
CD
100
AcDbEntity
  8
cartiglio
  6
ByLayer
 62
  256
370
   13
100
AcDbMText
 10
210
 20
208
 30
0
 40
4
 41
2.222222222222222
 71
    1
 72
    1
  1
4
  7
standard
210
0
220
0
230
1
 50
0
 73
    2
 44
1
  0
MTEXT
  5
CE
100
AcDbEntity
  8
cartiglio
  6
ByLayer
 62
  256
370
   13
100
AcDbMText
 10
265
 20
208
 30
0
 40
4
 41
1.777777777778026
 71
    1
 72
    1
  1
5
  7
standard
210
0
220
0
230
1
 50
0
 73
    2
 44
1
  0
LINE
  5
CF
100
AcDbEntity
  8
cartiglio
  6
ByLayer
 62
  256
370
   13
100
AcDbLine
 10
8
 20
-1.959370166115804e-015
 11
8
 21
210
  0
LINE
  5
D0
100
AcDbEntity
  8
cartiglio
  6
ByLayer
 62
  256
370
   13
100
AcDbLine
 10
-1.431108601721837e-015
 20
210
 11
2.449212707644755e-015
 21
8
  0
LINE
  5
D1
100
AcDbEntity
  8
cartiglio
  6
ByLayer
 62
  256
370
   13
100
AcDbLine
 10
289
 20
210
 11
288.9999999999999
 21
-6.980256216787549e-014
  0
LINE
  5
D2
100
AcDbEntity
  8
cartiglio
  6
ByLayer
 62
  256
370
   13
100
AcDbLine
 10
297
 20
210
 11
296.9999999999999
 21
-7.27416174170492e-014
  0
LINE
  5
D3
100
AcDbEntity
  8
cartiglio
  6
ByLayer
 62
  256
370
   13
100
AcDbLine
 10
-6.061801451420767e-015
 20
177
 11
7.999999999999996
 21
177
  0
LINE
  5
D4
100
AcDbEntity
  8
cartiglio
  6
ByLayer
 62
  256
370
   13
100
AcDbLine
 10
-1.065407527825468e-014
 20
152
 11
7.999999999999991
 21
152
  0
LINE
  5
D5
100
AcDbEntity
  8
cartiglio
  6
ByLayer
 62
  256
370
   13
100
AcDbLine
 10
-1.52463491050886e-014
 20
127
 11
7.999999999999987
 21
127
  0
LINE
  5
D6
100
AcDbEntity
  8
cartiglio
  6
ByLayer
 62
  256
370
   13
100
AcDbLine
 10
-1.983862293192251e-014
 20
102
 11
7.999999999999982
 21
102
  0
LINE
  5
D7
100
AcDbEntity
  8
cartiglio
  6
ByLayer
 62
  256
370
   13
100
AcDbLine
 10
-2.443089675875643e-014
 20
77
 11
7.999999999999978
 21
77
  0
LINE
  5
D8
100
AcDbEntity
  8
cartiglio
  6
ByLayer
 62
  256
370
   13
100
AcDbLine
 10
-2.902317058559034e-014
 20
52
 11
7.999999999999973
 21
52
  0
LINE
  5
D9
100
AcDbEntity
  8
cartiglio
  6
ByLayer
 62
  256
370
   13
100
AcDbLine
 10
-3.361544441242426e-014
 20
27
 11
7.999999999999969
 21
27
  0
MTEXT
  5
DA
100
AcDbEntity
  8
cartiglio
  6
ByLayer
 62
  256
370
   13
100
AcDbMText
 10
3
 20
193
 30
0
 40
4
 41
1.777777777777964
 71
    1
 72
    1
  1
a
  7
standard
210
0
220
0
230
1
 50
0
 73
    2
 44
1
  0
MTEXT
  5
DB
100
AcDbEntity
  8
cartiglio
  6
ByLayer
 62
  256
370
   13
100
AcDbMText
 10
4
 20
143
 30
0
 40
4
 41
1.33333333333352
 71
    1
 72
    1
  1
c
  7
standard
210
0
220
0
230
1
 50
0
 73
    2
 44
1
  0
MTEXT
  5
DC
100
AcDbEntity
  8
cartiglio
  6
ByLayer
 62
  256
370
   13
100
AcDbMText
 10
3
 20
167
 30
0
 40
4
 41
1.777777777777964
 71
    1
 72
    1
  1
b
  7
standard
210
0
220
0
230
1
 50
0
 73
    2
 44
1
  0
MTEXT
  5
DD
100
AcDbEntity
  8
cartiglio
  6
ByLayer
 62
  256
370
   13
100
AcDbMText
 10
3
 20
117
 30
0
 40
4
 41
1.777777777777964
 71
    1
 72
    1
  1
d
  7
standard
210
0
220
0
230
1
 50
0
 73
    2
 44
1
  0
MTEXT
  5
DE
100
AcDbEntity
  8
cartiglio
  6
ByLayer
 62
  256
370
   13
100
AcDbMText
 10
3
 20
92
 30
0
 40
4
 41
1.777777777777964
 71
    1
 72
    1
  1
e
  7
standard
210
0
220
0
230
1
 50
0
 73
    2
 44
1
  0
MTEXT
  5
DF
100
AcDbEntity
  8
cartiglio
  6
ByLayer
 62
  256
370
   13
100
AcDbMText
 10
3
 20
65
 30
0
 40
4
 41
1.333333333333333
 71
    1
 72
    1
  1
f
  7
standard
210
0
220
0
230
1
 50
0
 73
    2
 44
1
  0
MTEXT
  5
E0
100
AcDbEntity
  8
cartiglio
  6
ByLayer
 62
  256
370
   13
100
AcDbMText
 10
3
 20
43
 30
0
 40
4
 41
1.77777777777815
 71
    1
 72
    1
  1
g
  7
standard
210
0
220
0
230
1
 50
0
 73
    2
 44
1
  0
MTEXT
  5
E1
100
AcDbEntity
  8
cartiglio
  6
ByLayer
 62
  256
370
   13
100
AcDbMText
 10
3
 20
20
 30
0
 40
6
 41
2
 71
    1
 72
    1
  1
f
  7
standard
210
0
220
0
230
1
 50
0
 73
    2
 44
1
  0
LINE
  5
E2
100
AcDbEntity
  8
cartiglio2
  6
ByLayer
 62
  256
370
   13
100
AcDbLine
 10
330
 20
0
 11
626.9999999999999
 21
-7.27416174170492e-014
  0
LINE
  5
E3
100
AcDbEntity
  8
cartiglio2
  6
ByLayer
 62
  256
370
   13
100
AcDbLine
 10
330
 20
8
 11
626.9999999999999
 21
7.999999999999927
  0
LINE
  5
E4
100
AcDbEntity
  8
cartiglio2
  6
ByLayer
 62
  256
370
   13
100
AcDbLine
 10
330
 20
8
 11
330
 21
0
  0
ARC
  5
E5
100
AcDbEntity
  8
cartiglio2
  6
ByLayer
 62
  256
370
   13
100
AcDbCircle
 10
330
 20
0
 40
0
100
AcDbArc
 50
0
 51
0
  0
LINE
  5
E6
100
AcDbEntity
  8
cartiglio2
  6
ByLayer
 62
  256
370
   13
100
AcDbLine
 10
390
 20
-2.842170943040401e-014
 11
390
 21
7.999999999999972
  0
LINE
  5
E7
100
AcDbEntity
  8
cartiglio2
  6
ByLayer
 62
  256
370
   13
100
AcDbLine
 10
450
 20
-5.684341886080801e-014
 11
450
 21
7.999999999999943
  0
LINE
  5
E8
100
AcDbEntity
  8
cartiglio2
  6
ByLayer
 62
  256
370
   13
100
AcDbLine
 10
510
 20
-8.526512829121202e-014
 11
510
 21
7.999999999999915
  0
LINE
  5
E9
100
AcDbEntity
  8
cartiglio2
  6
ByLayer
 62
  256
370
   13
100
AcDbLine
 10
570
 20
-1.13686837721616e-013
 11
570
 21
7.999999999999886
  0
LINE
  5
EA
100
AcDbEntity
  8
cartiglio2
  6
ByLayer
 62
  256
370
   13
100
AcDbLine
 10
550
 20
30
 11
550
 21
20
  0
LINE
  5
EB
100
AcDbEntity
  8
cartiglio2
  6
ByLayer
 62
  256
370
   13
100
AcDbLine
 10
550
 20
20
 11
500
 21
20
  0
LINE
  5
EC
100
AcDbEntity
  8
cartiglio2
  6
ByLayer
 62
  256
370
   13
100
AcDbLine
 10
500
 20
7.999999999999958
 11
500
 21
40
  0
LINE
  5
ED
100
AcDbEntity
  8
cartiglio2
  6
ByLayer
 62
  256
370
   13
100
AcDbLine
 10
550
 20
7.999999999999947
 11
550
 21
30
  0
LINE
  5
EE
100
AcDbEntity
  8
cartiglio2
  6
ByLayer
 62
  256
370
   13
100
AcDbLine
 10
500
 20
40
 11
618.9999999999999
 21
40
  0
LINE
  5
EF
100
AcDbEntity
  8
cartiglio2
  6
ByLayer
 62
  256
370
   13
100
AcDbLine
 10
618.9999999999999
 20
30
 11
500
 21
30
  0
MTEXT
  5
F0
100
AcDbEntity
  8
cartiglio2
  6
ByLayer
 62
  256
370
   13
100
AcDbMText
 10
503
 20
38
 30
0
 40
6
 41
79.66666975239126
 71
    1
 72
    1
  1
Banco sega cirolare\P
  7
standard
210
0
220
0
230
1
 50
0
 73
    2
 44
1
  0
MTEXT
  5
F1
100
AcDbEntity
  8
cartiglio2
  6
ByLayer
 62
  256
370
   13
100
AcDbMText
 10
593
 20
38
 30
0
 40
6
 41
23.83333333333333
 71
    1
 72
    1
  1
P. 2/2\P
  7
standard
210
0
220
0
230
1
 50
0
 73
    2
 44
1
  0
MTEXT
  5
F2
100
AcDbEntity
  8
cartiglio2
  6
ByLayer
 62
  256
370
   13
100
AcDbMText
 10
502
 20
28
 30
0
 40
6
 41
43.33333333333371
 71
    1
 72
    1
  1
06/12/2022
  7
standard
210
0
220
0
230
1
 50
0
 73
    2
 44
1
  0
MTEXT
  5
F3
100
AcDbEntity
  8
cartiglio2
  6
ByLayer
 62
  256
370
   13
100
AcDbMText
 10
502
 20
17
 30
0
 40
6
 41
30.66666666666723
 71
    1
 72
    1
  1
Potenza\P
  7
standard
210
0
220
0
230
1
 50
0
 73
    2
 44
1
  0
LINE
  5
F4
100
AcDbEntity
  8
cartiglio2
  6
ByLayer
 62
  256
370
   13
100
AcDbLine
 10
330
 20
210
 11
627
 21
210
  0
LINE
  5
F5
100
AcDbEntity
  8
cartiglio2
  6
ByLayer
 62
  256
370
   13
100
AcDbLine
 10
330
 20
202
 11
627
 21
202
  0
LINE
  5
F6
100
AcDbEntity
  8
cartiglio2
  6
ByLayer
 62
  256
370
   13
100
AcDbLine
 10
330
 20
210
 11
330
 21
202
  0
LINE
  5
F7
100
AcDbEntity
  8
cartiglio2
  6
ByLayer
 62
  256
370
   13
100
AcDbLine
 10
338
 20
202
 11
338
 21
210
  0
LINE
  5
F8
100
AcDbEntity
  8
cartiglio2
  6
ByLayer
 62
  256
370
   13
100
AcDbLine
 10
390
 20
202
 11
390
 21
210
  0
LINE
  5
F9
100
AcDbEntity
  8
cartiglio2
  6
ByLayer
 62
  256
370
   13
100
AcDbLine
 10
450
 20
201.9999999999999
 11
450
 21
209.9999999999999
  0
LINE
  5
FA
100
AcDbEntity
  8
cartiglio2
  6
ByLayer
 62
  256
370
   13
100
AcDbLine
 10
510
 20
201.9999999999999
 11
510
 21
209.9999999999999
  0
LINE
  5
FB
100
AcDbEntity
  8
cartiglio2
  6
ByLayer
 62
  256
370
   13
100
AcDbLine
 10
570
 20
201.9999999999999
 11
570
 21
209.9999999999999
  0
MTEXT
  5
FC
100
AcDbEntity
  8
cartiglio2
  6
ByLayer
 62
  256
370
   13
100
AcDbMText
 10
361
 20
208
 30
0
 40
4
 41
0.8888888888888888
 71
    1
 72
    1
  1
1\P
  7
standard
210
0
220
0
230
1
 50
0
 73
    2
 44
1
  0
MTEXT
  5
FD
100
AcDbEntity
  8
cartiglio2
  6
ByLayer
 62
  256
370
   13
100
AcDbMText
 10
421
 20
208
 30
0
 40
4
 41
1.777777777777778
 71
    1
 72
    1
  1
2
  7
standard
210
0
220
0
230
1
 50
0
 73
    2
 44
1
  0
MTEXT
  5
FE
100
AcDbEntity
  8
cartiglio2
  6
ByLayer
 62
  256
370
   13
100
AcDbMText
 10
480
 20
208
 30
0
 40
4
 41
1.777777777778026
 71
    1
 72
    1
  1
3
  7
standard
210
0
220
0
230
1
 50
0
 73
    2
 44
1
  0
MTEXT
  5
FF
100
AcDbEntity
  8
cartiglio2
  6
ByLayer
 62
  256
370
   13
100
AcDbMText
 10
540
 20
208
 30
0
 40
4
 41
2.222222222222222
 71
    1
 72
    1
  1
4
  7
standard
210
0
220
0
230
1
 50
0
 73
    2
 44
1
  0
MTEXT
  5
100
100
AcDbEntity
  8
cartiglio2
  6
ByLayer
 62
  256
370
   13
100
AcDbMText
 10
595
 20
208
 30
0
 40
4
 41
1.777777777778026
 71
    1
 72
    1
  1
5
  7
standard
210
0
220
0
230
1
 50
0
 73
    2
 44
1
  0
LINE
  5
101
100
AcDbEntity
  8
cartiglio2
  6
ByLayer
 62
  256
370
   13
100
AcDbLine
 10
330
 20
202
 11
330
 21
8
  0
LINE
  5
102
100
AcDbEntity
  8
cartiglio2
  6
ByLayer
 62
  256
370
   13
100
AcDbLine
 10
338
 20
-1.959370166115804e-015
 11
338
 21
202
  0
LINE
  5
103
100
AcDbEntity
  8
cartiglio2
  6
ByLayer
 62
  256
370
   13
100
AcDbLine
 10
619
 20
210
 11
618.9999999999999
 21
-6.980256216787549e-014
  0
LINE
  5
104
100
AcDbEntity
  8
cartiglio2
  6
ByLayer
 62
  256
370
   13
100
AcDbLine
 10
627
 20
210
 11
626.9999999999999
 21
-7.27416174170492e-014
  0
LINE
  5
105
100
AcDbEntity
  8
cartiglio2
  6
ByLayer
 62
  256
370
   13
100
AcDbLine
 10
330
 20
177
 11
338
 21
177
  0
LINE
  5
106
100
AcDbEntity
  8
cartiglio2
  6
ByLayer
 62
  256
370
   13
100
AcDbLine
 10
330
 20
152
 11
338
 21
152
  0
LINE
  5
107
100
AcDbEntity
  8
cartiglio2
  6
ByLayer
 62
  256
370
   13
100
AcDbLine
 10
330
 20
127
 11
338
 21
127
  0
LINE
  5
108
100
AcDbEntity
  8
cartiglio2
  6
ByLayer
 62
  256
370
   13
100
AcDbLine
 10
330
 20
102
 11
338
 21
102
  0
LINE
  5
109
100
AcDbEntity
  8
cartiglio2
  6
ByLayer
 62
  256
370
   13
100
AcDbLine
 10
330
 20
77
 11
338
 21
77
  0
LINE
  5
10A
100
AcDbEntity
  8
cartiglio2
  6
ByLayer
 62
  256
370
   13
100
AcDbLine
 10
330
 20
52
 11
338
 21
52
  0
LINE
  5
10B
100
AcDbEntity
  8
cartiglio2
  6
ByLayer
 62
  256
370
   13
100
AcDbLine
 10
329.9999999999999
 20
27
 11
337.9999999999999
 21
27
  0
MTEXT
  5
10C
100
AcDbEntity
  8
cartiglio2
  6
ByLayer
 62
  256
370
   13
100
AcDbMText
 10
333
 20
193
 30
0
 40
4
 41
1.777777777777964
 71
    1
 72
    1
  1
a
  7
standard
210
0
220
0
230
1
 50
0
 73
    2
 44
1
  0
MTEXT
  5
10D
100
AcDbEntity
  8
cartiglio2
  6
ByLayer
 62
  256
370
   13
100
AcDbMText
 10
334
 20
143
 30
0
 40
4
 41
1.33333333333352
 71
    1
 72
    1
  1
c
  7
standard
210
0
220
0
230
1
 50
0
 73
    2
 44
1
  0
MTEXT
  5
10E
100
AcDbEntity
  8
cartiglio2
  6
ByLayer
 62
  256
370
   13
100
AcDbMText
 10
333
 20
167
 30
0
 40
4
 41
1.777777777777964
 71
    1
 72
    1
  1
b
  7
standard
210
0
220
0
230
1
 50
0
 73
    2
 44
1
  0
MTEXT
  5
10F
100
AcDbEntity
  8
cartiglio2
  6
ByLayer
 62
  256
370
   13
100
AcDbMText
 10
333
 20
117
 30
0
 40
4
 41
1.777777777777964
 71
    1
 72
    1
  1
d
  7
standard
210
0
220
0
230
1
 50
0
 73
    2
 44
1
  0
MTEXT
  5
110
100
AcDbEntity
  8
cartiglio2
  6
ByLayer
 62
  256
370
   13
100
AcDbMText
 10
333
 20
92
 30
0
 40
4
 41
1.777777777777964
 71
    1
 72
    1
  1
e
  7
standard
210
0
220
0
230
1
 50
0
 73
    2
 44
1
  0
MTEXT
  5
111
100
AcDbEntity
  8
cartiglio2
  6
ByLayer
 62
  256
370
   13
100
AcDbMText
 10
333
 20
65
 30
0
 40
4
 41
1.333333333333333
 71
    1
 72
    1
  1
f
  7
standard
210
0
220
0
230
1
 50
0
 73
    2
 44
1
  0
MTEXT
  5
112
100
AcDbEntity
  8
cartiglio2
  6
ByLayer
 62
  256
370
   13
100
AcDbMText
 10
333
 20
43
 30
0
 40
4
 41
1.77777777777815
 71
    1
 72
    1
  1
g
  7
standard
210
0
220
0
230
1
 50
0
 73
    2
 44
1
  0
MTEXT
  5
113
100
AcDbEntity
  8
cartiglio2
  6
ByLayer
 62
  256
370
   13
100
AcDbMText
 10
333
 20
20
 30
0
 40
6
 41
2
 71
    1
 72
    1
  1
f
  7
standard
210
0
220
0
230
1
 50
0
 73
    2
 44
1
  0
LINE
  5
114
100
AcDbEntity
  8
cartiglio
  6
ByLayer
 62
  256
370
   13
100
AcDbLine
 10
289
 20
210
 11
289
 21
202
  0
LINE
  5
115
100
AcDbEntity
  8
cartiglio
  6
ByLayer
 62
  256
370
   13
100
AcDbLine
 10
289
 20
202
 11
297
 21
202
  0
LINE
  5
116
100
AcDbEntity
  8
cartiglio
  6
ByLayer
 62
  256
370
   13
100
AcDbLine
 10
289
 20
177
 11
297
 21
177
  0
LINE
  5
117
100
AcDbEntity
  8
cartiglio
  6
ByLayer
 62
  256
370
   13
100
AcDbLine
 10
289
 20
152
 11
297
 21
152
  0
LINE
  5
118
100
AcDbEntity
  8
cartiglio
  6
ByLayer
 62
  256
370
   13
100
AcDbLine
 10
289
 20
127
 11
297
 21
127
  0
LINE
  5
119
100
AcDbEntity
  8
cartiglio
  6
ByLayer
 62
  256
370
   13
100
AcDbLine
 10
289
 20
102
 11
297
 21
102
  0
LINE
  5
11A
100
AcDbEntity
  8
cartiglio
  6
ByLayer
 62
  256
370
   13
100
AcDbLine
 10
289
 20
77
 11
297
 21
77
  0
LINE
  5
11B
100
AcDbEntity
  8
cartiglio
  6
ByLayer
 62
  256
370
   13
100
AcDbLine
 10
289
 20
52
 11
297
 21
52
  0
LINE
  5
11C
100
AcDbEntity
  8
cartiglio
  6
ByLayer
 62
  256
370
   13
100
AcDbLine
 10
288.9999999999999
 20
27
 11
296.9999999999999
 21
27
  0
MTEXT
  5
11D
100
AcDbEntity
  8
cartiglio
  6
ByLayer
 62
  256
370
   13
100
AcDbMText
 10
292
 20
193
 30
0
 40
4
 41
1.777777777777964
 71
    1
 72
    1
  1
a
  7
standard
210
0
220
0
230
1
 50
0
 73
    2
 44
1
  0
MTEXT
  5
11E
100
AcDbEntity
  8
cartiglio
  6
ByLayer
 62
  256
370
   13
100
AcDbMText
 10
293
 20
143
 30
0
 40
4
 41
1.33333333333352
 71
    1
 72
    1
  1
c
  7
standard
210
0
220
0
230
1
 50
0
 73
    2
 44
1
  0
MTEXT
  5
11F
100
AcDbEntity
  8
cartiglio
  6
ByLayer
 62
  256
370
   13
100
AcDbMText
 10
292
 20
167
 30
0
 40
4
 41
1.777777777777964
 71
    1
 72
    1
  1
b
  7
standard
210
0
220
0
230
1
 50
0
 73
    2
 44
1
  0
MTEXT
  5
120
100
AcDbEntity
  8
cartiglio
  6
ByLayer
 62
  256
370
   13
100
AcDbMText
 10
292
 20
117
 30
0
 40
4
 41
1.777777777777964
 71
    1
 72
    1
  1
d
  7
standard
210
0
220
0
230
1
 50
0
 73
    2
 44
1
  0
MTEXT
  5
121
100
AcDbEntity
  8
cartiglio
  6
ByLayer
 62
  256
370
   13
100
AcDbMText
 10
292
 20
92
 30
0
 40
4
 41
1.777777777777964
 71
    1
 72
    1
  1
e
  7
standard
210
0
220
0
230
1
 50
0
 73
    2
 44
1
  0
MTEXT
  5
122
100
AcDbEntity
  8
cartiglio
  6
ByLayer
 62
  256
370
   13
100
AcDbMText
 10
292
 20
65
 30
0
 40
4
 41
1.333333333333333
 71
    1
 72
    1
  1
f
  7
standard
210
0
220
0
230
1
 50
0
 73
    2
 44
1
  0
MTEXT
  5
123
100
AcDbEntity
  8
cartiglio
  6
ByLayer
 62
  256
370
   13
100
AcDbMText
 10
292
 20
43
 30
0
 40
4
 41
1.77777777777815
 71
    1
 72
    1
  1
g
  7
standard
210
0
220
0
230
1
 50
0
 73
    2
 44
1
  0
MTEXT
  5
124
100
AcDbEntity
  8
cartiglio
  6
ByLayer
 62
  256
370
   13
100
AcDbMText
 10
292
 20
20
 30
0
 40
6
 41
2
 71
    1
 72
    1
  1
f
  7
standard
210
0
220
0
230
1
 50
0
 73
    2
 44
1
  0
LINE
  5
125
100
AcDbEntity
  8
cartiglio2
  6
ByLayer
 62
  256
370
   13
100
AcDbLine
 10
619
 20
177
 11
627
 21
177
  0
LINE
  5
126
100
AcDbEntity
  8
cartiglio2
  6
ByLayer
 62
  256
370
   13
100
AcDbLine
 10
619
 20
152
 11
627
 21
152
  0
LINE
  5
127
100
AcDbEntity
  8
cartiglio2
  6
ByLayer
 62
  256
370
   13
100
AcDbLine
 10
619
 20
127
 11
627
 21
127
  0
LINE
  5
128
100
AcDbEntity
  8
cartiglio2
  6
ByLayer
 62
  256
370
   13
100
AcDbLine
 10
619
 20
102
 11
627
 21
102
  0
LINE
  5
129
100
AcDbEntity
  8
cartiglio2
  6
ByLayer
 62
  256
370
   13
100
AcDbLine
 10
619
 20
77
 11
627
 21
77
  0
LINE
  5
12A
100
AcDbEntity
  8
cartiglio2
  6
ByLayer
 62
  256
370
   13
100
AcDbLine
 10
619
 20
52
 11
627
 21
52
  0
LINE
  5
12B
100
AcDbEntity
  8
cartiglio2
  6
ByLayer
 62
  256
370
   13
100
AcDbLine
 10
619
 20
27
 11
627
 21
27
  0
MTEXT
  5
12C
100
AcDbEntity
  8
cartiglio2
  6
ByLayer
 62
  256
370
   13
100
AcDbMText
 10
622
 20
193
 30
0
 40
4
 41
1.777777777777964
 71
    1
 72
    1
  1
a
  7
standard
210
0
220
0
230
1
 50
0
 73
    2
 44
1
  0
MTEXT
  5
12D
100
AcDbEntity
  8
cartiglio2
  6
ByLayer
 62
  256
370
   13
100
AcDbMText
 10
623
 20
143
 30
0
 40
4
 41
1.33333333333352
 71
    1
 72
    1
  1
c
  7
standard
210
0
220
0
230
1
 50
0
 73
    2
 44
1
  0
MTEXT
  5
12E
100
AcDbEntity
  8
cartiglio2
  6
ByLayer
 62
  256
370
   13
100
AcDbMText
 10
622
 20
167
 30
0
 40
4
 41
1.777777777777964
 71
    1
 72
    1
  1
b
  7
standard
210
0
220
0
230
1
 50
0
 73
    2
 44
1
  0
MTEXT
  5
12F
100
AcDbEntity
  8
cartiglio2
  6
ByLayer
 62
  256
370
   13
100
AcDbMText
 10
622
 20
117
 30
0
 40
4
 41
1.777777777777964
 71
    1
 72
    1
  1
d
  7
standard
210
0
220
0
230
1
 50
0
 73
    2
 44
1
  0
MTEXT
  5
130
100
AcDbEntity
  8
cartiglio2
  6
ByLayer
 62
  256
370
   13
100
AcDbMText
 10
622
 20
92
 30
0
 40
4
 41
1.777777777777964
 71
    1
 72
    1
  1
e
  7
standard
210
0
220
0
230
1
 50
0
 73
    2
 44
1
  0
MTEXT
  5
131
100
AcDbEntity
  8
cartiglio2
  6
ByLayer
 62
  256
370
   13
100
AcDbMText
 10
622
 20
65
 30
0
 40
4
 41
1.333333333333333
 71
    1
 72
    1
  1
f
  7
standard
210
0
220
0
230
1
 50
0
 73
    2
 44
1
  0
MTEXT
  5
132
100
AcDbEntity
  8
cartiglio2
  6
ByLayer
 62
  256
370
   13
100
AcDbMText
 10
622
 20
43
 30
0
 40
4
 41
1.77777777777815
 71
    1
 72
    1
  1
g
  7
standard
210
0
220
0
230
1
 50
0
 73
    2
 44
1
  0
MTEXT
  5
133
100
AcDbEntity
  8
cartiglio2
  6
ByLayer
 62
  256
370
   13
100
AcDbMText
 10
622
 20
20
 30
0
 40
6
 41
2
 71
    1
 72
    1
  1
f
  7
standard
210
0
220
0
230
1
 50
0
 73
    2
 44
1
  0
TEXT
  5
134
100
AcDbEntity
  8
potenza
  6
ByLayer
 62
  256
370
   13
100
AcDbText
 10
500
 20
130
 30
0
 40
4
  1
BR1
 50
0
 41
1
 51
0
  7
standard
 71
    0
210
0
220
0
230
1
100
AcDbText
  0
TEXT
  5
135
100
AcDbEntity
  8
potenza
  6
ByLayer
 62
  256
370
   13
100
AcDbText
 10
471
 20
171
 30
0
 40
4
  1
24
 50
0
 41
1
 51
0
  7
standard
 71
    0
210
0
220
0
230
1
100
AcDbText
  0
TEXT
  5
136
100
AcDbEntity
  8
potenza
  6
ByLayer
 62
  256
370
   13
100
AcDbText
 10
451
 20
113
 30
0
 40
4
  1
24
 50
0
 41
1
 51
0
  7
standard
 71
    0
210
0
220
0
230
1
100
AcDbText
  0
TEXT
  5
137
100
AcDbEntity
  8
potenza
  6
ByLayer
 62
  256
370
   13
100
AcDbText
 10
512
 20
124
 30
0
 40
4
  1
124
 50
0
 41
1
 51
0
  7
standard
 71
    0
210
0
220
0
230
1
100
AcDbText
  0
TEXT
  5
138
100
AcDbEntity
  8
potenza
  6
ByLayer
 62
  256
370
   13
100
AcDbText
 10
523
 20
124
 30
0
 40
4
  1
100
 50
0
 41
1
 51
0
  7
standard
 71
    0
210
0
220
0
230
1
100
AcDbText
  0
TEXT
  5
139
100
AcDbEntity
  8
potenza
  6
ByLayer
 62
  256
370
   13
100
AcDbText
 10
527
 20
142
 30
0
 40
4
  1
0
 50
0
 41
1
 51
0
  7
standard
 71
    0
210
0
220
0
230
1
100
AcDbText
  0
TEXT
  5
13A
100
AcDbEntity
  8
potenza
  6
ByLayer
 62
  256
370
   13
100
AcDbText
 10
514
 20
142
 30
0
 40
4
  1
24
 50
0
 41
1
 51
0
  7
standard
 71
    0
210
0
220
0
230
1
100
AcDbText
  0
TEXT
  5
13B
100
AcDbEntity
  8
potenza
  6
ByLayer
 62
  256
370
   13
100
AcDbText
 10
437
 20
113
 30
0
 40
4
  1
0
 50
0
 41
1
 51
0
  7
standard
 71
    0
210
0
220
0
230
1
100
AcDbText
  0
CIRCLE
  5
13C
100
AcDbEntity
  8
potenza
  6
ByLayer
 62
  256
370
   -1
100
AcDbCircle
 10
380
 20
190
 40
1
  0
CIRCLE
  5
13D
100
AcDbEntity
  8
potenza
  6
ByLayer
 62
  256
370
   -1
100
AcDbCircle
 10
390
 20
185
 40
1
  0
CIRCLE
  5
13E
100
AcDbEntity
  8
potenza
  6
ByLayer
 62
  256
370
   -1
100
AcDbCircle
 10
400
 20
180
 40
1
  0
CIRCLE
  5
13F
100
AcDbEntity
  8
potenza
  6
ByLayer
 62
  256
370
   -1
100
AcDbCircle
 10
520
 20
170
 40
1
  0
LINE
  5
140
100
AcDbEntity
  8
controllo
  6
ByLayer
 62
  256
370
   13
100
AcDbLine
 10
20
 20
190
 11
260
 21
190
  0
LINE
  5
141
100
AcDbEntity
  8
controllo
  6
ByLayer
 62
  256
370
   13
100
AcDbLine
 10
40
 20
110
 11
60
 21
110
  0
LINE
  5
142
100
AcDbEntity
  8
controllo
  6
ByLayer
 62
  256
370
   13
100
AcDbLine
 10
60
 20
110
 11
60
 21
180
  0
LINE
  5
143
100
AcDbEntity
  8
controllo
  6
ByLayer
 62
  256
370
   13
100
AcDbLine
 10
37
 20
135
 11
40
 21
135
  0
LINE
  5
144
100
AcDbEntity
  8
controllo
  6
ByLayer
 62
  256
370
   13
100
AcDbLine
 10
40
 20
160
 11
40
 21
140
  0
LINE
  5
145
100
AcDbEntity
  8
controllo
  6
ByLayer
 62
  256
370
   13
100
AcDbLine
 10
39.5
 20
160.8660254037844
 11
35
 21
168.6602540378444
  0
LINE
  5
146
100
AcDbEntity
  8
controllo
  6
ByLayer
 62
  256
370
   13
100
AcDbLine
 10
35
 20
168.6602540378444
 11
36
 21
166.9282032302755
  0
LINE
  5
147
100
AcDbEntity
  8
controllo
  6
ByLayer
 62
  256
370
   13
100
AcDbLine
 10
36
 20
166.9282032302755
 11
35.13397459621556
 21
166.4282032302755
  0
LINE
  5
148
100
AcDbEntity
  8
controllo
  6
ByLayer
 62
  256
370
   13
100
AcDbLine
 10
35.13397459621556
 20
166.4282032302755
 11
38.13397459621556
 21
161.2320508075689
  0
LINE
  5
149
100
AcDbEntity
  8
controllo
  6
ByLayer
 62
  256
370
   13
100
AcDbLine
 10
38.13397459621556
 20
161.2320508075689
 11
39.86602540378444
 21
162.2320508075689
  0
LINE
  5
14A
100
AcDbEntity
  8
controllo
  6
ByLayer
 62
  256
370
   13
100
AcDbLine
 10
39.86602540378444
 20
162.2320508075689
 11
36.86602540378444
 21
167.4282032302755
  0
LINE
  5
14B
100
AcDbEntity
  8
controllo
  6
ByLayer
 62
  256
370
   13
100
AcDbLine
 10
36.5
 20
166.0621778264911
 11
40
 21
160
  0
LINE
  5
14C
100
AcDbEntity
  8
controllo
  6
ByLayer
 62
  256
370
   13
100
AcDbLine
 10
36.86602540378444
 20
167.4282032302755
 11
36
 21
166.9282032302755
  0
LINE
  5
14D
100
AcDbEntity
  8
controllo
  6
ByLayer
 62
  256
370
   13
100
AcDbLine
 10
38.5
 20
170
 11
41.5
 21
170
  0
ARC
  5
14E
100
AcDbEntity
  8
controllo
  6
ByLayer
 62
  256
370
   13
100
AcDbCircle
 10
33.25
 20
135
 40
3.25
100
AcDbArc
 50
112.6198649480404
 51
247.3801350519596
  0
LINE
  5
14F
100
AcDbEntity
  8
controllo
  6
ByLayer
 62
  256
370
   13
100
AcDbLine
 10
32
 20
138
 11
32
 21
140
  0
LINE
  5
150
100
AcDbEntity
  8
controllo
  6
ByLayer
 62
  256
370
   13
100
AcDbLine
 10
32
 20
132
 11
32
 21
130
  0
LINE
  5
151
100
AcDbEntity
  8
controllo
  6
ByLayer
 62
  256
370
   13
100
AcDbLine
 10
37
 20
135
 11
35
 21
137
  0
LINE
  5
152
100
AcDbEntity
  8
controllo
  6
ByLayer
 62
  256
370
   13
100
AcDbLine
 10
35
 20
137
 11
35
 21
135
  0
LINE
  5
153
100
AcDbEntity
  8
controllo
  6
ByLayer
 62
  256
370
   13
100
AcDbLine
 10
35
 20
135
 11
32
 21
135
  0
LINE
  5
154
100
AcDbEntity
  8
controllo
  6
ByLayer
 62
  256
370
   13
100
AcDbLine
 10
40
 20
140
 11
44
 21
140
  0
LINE
  5
155
100
AcDbEntity
  8
controllo
  6
ByLayer
 62
  256
370
   13
100
AcDbLine
 10
40
 20
130
 11
43
 21
140
  0
LINE
  5
156
100
AcDbEntity
  8
controllo
  6
ByLayer
 62
  256
370
   13
100
AcDbLine
 10
40
 20
190
 11
40
 21
170
  0
LINE
  5
157
100
AcDbEntity
  8
controllo
  6
ByLayer
 62
  256
370
   13
100
AcDbLine
 10
40
 20
130
 11
40
 21
110
  0
LINE
  5
158
100
AcDbEntity
  8
controllo
  6
ByLayer
 62
  256
370
   13
100
AcDbLine
 10
80
 20
180
 11
80
 21
170
  0
LINE
  5
159
100
AcDbEntity
  8
controllo
  6
ByLayer
 62
  256
370
   13
100
AcDbLine
 10
75
 20
170
 11
80
 21
160
  0
CIRCLE
  5
15A
100
AcDbEntity
  8
controllo
  6
ByLayer
 62
  256
370
   13
100
AcDbCircle
 10
72
 20
166
 40
2
  0
LINE
  5
15B
100
AcDbEntity
  8
controllo
  6
ByLayer
 62
  256
370
   13
100
AcDbLine
 10
70
 20
160
 11
74
 21
160
  0
LINE
  5
15C
100
AcDbEntity
  8
controllo
  6
ByLayer
 62
  256
370
   13
100
AcDbLine
 10
74
 20
160
 11
72.94117647058835
 21
164.2352941176466
  0
LINE
  5
15D
100
AcDbEntity
  8
controllo
  6
ByLayer
 62
  256
370
   13
100
AcDbLine
 10
70
 20
160
 11
71.05882352941165
 21
164.2352941176466
  0
LINE
  5
15E
100
AcDbEntity
  8
controllo
  6
ByLayer
 62
  256
370
   13
100
AcDbLine
 10
75
 20
165
 11
77.5
 21
165
  0
LINE
  5
15F
100
AcDbEntity
  8
controllo
  6
ByLayer
 62
  256
370
   13
100
AcDbLine
 10
80
 20
160
 11
80
 21
140
  0
LINE
  5
160
100
AcDbEntity
  8
controllo
  6
ByLayer
 62
  256
370
   13
100
AcDbLine
 10
85
 20
140
 11
80
 21
140
  0
LINE
  5
161
100
AcDbEntity
  8
controllo
  6
ByLayer
 62
  256
370
   13
100
AcDbLine
 10
80
 20
130
 11
84
 21
140
  0
LINE
  5
162
100
AcDbEntity
  8
controllo
  6
ByLayer
 62
  256
370
   13
100
AcDbLine
 10
80
 20
130
 11
80
 21
110
  0
LINE
  5
163
100
AcDbEntity
  8
controllo
  6
ByLayer
 62
  256
370
   13
100
AcDbLine
 10
75
 20
110
 11
80
 21
100
  0
LINE
  5
164
100
AcDbEntity
  8
controllo
  6
ByLayer
 62
  256
370
   13
100
AcDbLine
 10
80
 20
100
 11
80
 21
90
  0
LINE
  5
165
100
AcDbEntity
  8
controllo
  6
ByLayer
 62
  256
370
   13
100
AcDbLine
 10
80
 20
120
 11
90
 21
120
  0
LWPOLYLINE
  5
166
100
AcDbEntity
  8
controllo
  6
ByLayer
 62
  256
370
   13
100
AcDbPolyline
 90
    4
 70
    1
 43
0
 10
70
 20
80
 10
90
 20
80
 10
90
 20
70
 10
70
 20
70
  0
LINE
  5
167
100
AcDbEntity
  8
controllo
  6
ByLayer
 62
  256
370
   13
100
AcDbLine
 10
70
 20
80
 11
90
 21
70
  0
LINE
  5
168
100
AcDbEntity
  8
controllo
  6
ByLayer
 62
  256
370
   13
100
AcDbLine
 10
80
 20
90
 11
80
 21
80
  0
LINE
  5
169
100
AcDbEntity
  8
controllo
  6
ByLayer
 62
  256
370
   13
100
AcDbLine
 10
80
 20
90
 11
90
 21
90
  0
LINE
  5
16A
100
AcDbEntity
  8
controllo
  6
ByLayer
 62
  256
370
   13
100
AcDbLine
 10
100
 20
120
 11
100
 21
110
  0
LINE
  5
16B
100
AcDbEntity
  8
controllo
  6
ByLayer
 62
  256
370
   13
100
AcDbLine
 10
95
 20
110
 11
100
 21
100
  0
LINE
  5
16C
100
AcDbEntity
  8
controllo
  6
ByLayer
 62
  256
370
   13
100
AcDbLine
 10
100
 20
90
 11
100
 21
100
  0
LINE
  5
16D
100
AcDbEntity
  8
controllo
  6
ByLayer
 62
  256
370
   13
100
AcDbLine
 10
90
 20
120
 11
100
 21
120
  0
LINE
  5
16E
100
AcDbEntity
  8
controllo
  6
ByLayer
 62
  256
370
   13
100
AcDbLine
 10
90
 20
90
 11
100
 21
90
  0
LINE
  5
16F
100
AcDbEntity
  8
controllo
  6
ByLayer
 62
  256
370
   13
100
AcDbLine
 10
80
 20
70
 11
80
 21
60
  0
LINE
  5
170
100
AcDbEntity
  8
controllo
  6
ByLayer
 62
  256
370
   13
100
AcDbLine
 10
120
 20
180
 11
120
 21
80
  0
CIRCLE
  5
171
100
AcDbEntity
  8
controllo
  6
ByLayer
 62
  256
370
   13
100
AcDbCircle
 10
120
 20
75
 40
5
  0
LINE
  5
172
100
AcDbEntity
  8
controllo
  6
ByLayer
 62
  256
370
   13
100
AcDbLine
 10
120
 20
70
 11
120
 21
60
  0
LINE
  5
173
100
AcDbEntity
  8
controllo
  6
ByLayer
 62
  256
370
   13
100
AcDbLine
 10
116.4644660940673
 20
78.53553390593274
 11
123.5355339059327
 21
71.46446609406726
  0
LINE
  5
174
100
AcDbEntity
  8
controllo
  6
ByLayer
 62
  256
370
   13
100
AcDbLine
 10
123.5355339059327
 20
78.53553390593274
 11
116.4644660940673
 21
71.46446609406726
  0
MTEXT
  5
175
100
AcDbEntity
  8
controllo
  6
ByLayer
 62
  256
370
   13
100
AcDbMText
 10
20
 20
196
 30
0
 40
5
 41
6.666666666666667
 71
    1
 72
    1
  1
24
  7
standard
210
0
220
0
230
1
 50
0
 73
    2
 44
1
  0
MTEXT
  5
176
100
AcDbEntity
  8
controllo
  6
ByLayer
 62
  256
370
   13
100
AcDbMText
 10
20
 20
66
 30
0
 40
5
 41
2.222222222222222
 71
    1
 72
    1
  1
0\P
  7
standard
210
0
220
0
230
1
 50
0
 73
    2
 44
1
  0
MTEXT
  5
177
100
AcDbEntity
  8
controllo
  6
ByLayer
 62
  256
370
   13
100
AcDbMText
 10
37
 20
155
 30
0
 40
5
 41
1.111111111111111
 71
    1
 72
    1
  1
1\P
  7
standard
210
0
220
0
230
1
 50
0
 73
    2
 44
1
  0
MTEXT
  5
178
100
AcDbEntity
  8
controllo
  6
ByLayer
 62
  256
370
   13
100
AcDbMText
 10
37
 20
125
 30
0
 40
5
 41
2.222222222222222
 71
    1
 72
    1
  1
2
  7
standard
210
0
220
0
230
1
 50
0
 73
    2
 44
1
  0
MTEXT
  5
179
100
AcDbEntity
  8
controllo
  6
ByLayer
 62
  256
370
   13
100
AcDbMText
 10
117
 20
86
 30
0
 40
5
 41
2.222222222222222
 71
    1
 72
    1
  1
2
  7
standard
210
0
220
0
230
1
 50
0
 73
    2
 44
1
  0
TEXT
  5
17A
100
AcDbEntity
  8
controllo
  6
ByLayer
 62
  256
370
   13
100
AcDbText
 10
77
 20
150
 30
0
 40
5
  1
3
 50
0
 41
1
 51
0
  7
standard
 71
    0
210
0
220
0
230
1
100
AcDbText
  0
TEXT
  5
17B
100
AcDbEntity
  8
controllo
  6
ByLayer
 62
  256
370
   13
100
AcDbText
 10
77
 20
125
 30
0
 40
5
  1
4
 50
0
 41
1
 51
0
  7
standard
 71
    0
210
0
220
0
230
1
100
AcDbText
  0
TEXT
  5
17C
100
AcDbEntity
  8
controllo
  6
ByLayer
 62
  256
370
   13
100
AcDbText
 10
77
 20
111
 30
0
 40
5
  1
4
 50
0
 41
1
 51
0
  7
standard
 71
    0
210
0
220
0
230
1
100
AcDbText
  0
TEXT
  5
17D
100
AcDbEntity
  8
controllo
  6
ByLayer
 62
  256
370
   13
100
AcDbText
 10
97
 20
111
 30
0
 40
5
  1
4
 50
0
 41
1
 51
0
  7
standard
 71
    0
210
0
220
0
230
1
100
AcDbText
  0
TEXT
  5
17E
100
AcDbEntity
  8
controllo
  6
ByLayer
 62
  256
370
   13
100
AcDbText
 10
77
 20
94
 30
0
 40
5
  1
5
 50
0
 41
1
 51
0
  7
standard
 71
    0
210
0
220
0
230
1
100
AcDbText
  0
TEXT
  5
17F
100
AcDbEntity
  8
controllo
  6
ByLayer
 62
  256
370
   13
100
AcDbText
 10
97
 20
94
 30
0
 40
5
  1
5
 50
0
 41
1
 51
0
  7
standard
 71
    0
210
0
220
0
230
1
100
AcDbText
  0
TEXT
  5
180
100
AcDbEntity
  8
controllo
  6
ByLayer
 62
  256
370
   13
100
AcDbText
 10
77
 20
82
 30
0
 40
5
  1
5
 50
0
 41
1
 51
0
  7
standard
 71
    0
210
0
220
0
230
1
100
AcDbText
  0
LINE
  5
181
100
AcDbEntity
  8
controllo
  6
ByLayer
 62
  256
370
   13
100
AcDbLine
 10
81
 20
135
 11
76
 21
135
  0
LINE
  5
182
100
AcDbEntity
  8
controllo
  6
ByLayer
 62
  256
370
   13
100
AcDbLine
 10
77
 20
137
 11
75
 21
137
  0
LINE
  5
183
100
AcDbEntity
  8
controllo
  6
ByLayer
 62
  256
370
   13
100
AcDbLine
 10
75
 20
137
 11
75
 21
133
  0
LINE
  5
184
100
AcDbEntity
  8
controllo
  6
ByLayer
 62
  256
370
   13
100
AcDbLine
 10
75
 20
133
 11
77
 21
133
  0
LINE
  5
185
100
AcDbEntity
  8
controllo
  6
ByLayer
 62
  256
370
   13
100
AcDbLine
 10
77
 20
105
 11
72
 21
105
  0
LINE
  5
186
100
AcDbEntity
  8
controllo
  6
ByLayer
 62
  256
370
   13
100
AcDbLine
 10
73
 20
107
 11
71
 21
107
  0
LINE
  5
187
100
AcDbEntity
  8
controllo
  6
ByLayer
 62
  256
370
   13
100
AcDbLine
 10
71
 20
107
 11
71
 21
103
  0
LINE
  5
188
100
AcDbEntity
  8
controllo
  6
ByLayer
 62
  256
370
   13
100
AcDbLine
 10
71
 20
103
 11
73
 21
103
  0
MTEXT
  5
189
100
AcDbEntity
  8
controllo
  6
ByLayer
 62
  256
370
   13
100
AcDbMText
 10
75
 20
176
 30
0
 40
5
 41
2.222222222222222
 71
    1
 72
    1
  1
2
  7
standard
210
0
220
0
230
1
 50
0
 73
    2
 44
1
  0
LINE
  5
18A
100
AcDbEntity
  8
panello
  6
DOTX2
 62
  256
370
   13
100
AcDbLine
 10
20
 20
140
 11
20
 21
144
  0
LINE
  5
18B
100
AcDbEntity
  8
panello
  6
DASHEDTINY
 62
  256
370
   13
100
AcDbLine
 10
33
 20
144
 11
50
 21
144
  0
LINE
  5
18C
100
AcDbEntity
  8
panello
  6
DASHEDTINY
 62
  256
370
   13
100
AcDbLine
 10
50
 20
144
 11
50
 21
185
  0
LINE
  5
18D
100
AcDbEntity
  8
panello
  6
DASHEDTINY
 62
  256
370
   13
100
AcDbLine
 10
90
 20
185
 11
90
 21
169
  0
LINE
  5
18E
100
AcDbEntity
  8
panello
  6
DASHEDTINY
 62
  256
370
   13
100
AcDbLine
 10
90
 20
169
 11
90
 21
117
  0
LINE
  5
18F
100
AcDbEntity
  8
panello
  6
DASHEDTINY
 62
  256
370
   13
100
AcDbLine
 10
90
 20
117
 11
90
 21
92
  0
LINE
  5
190
100
AcDbEntity
  8
panello
  6
DASHEDTINY
 62
  256
370
   13
100
AcDbLine
 10
90
 20
92
 11
75
 21
92
  0
LINE
  5
191
100
AcDbEntity
  8
panello
  6
DASHEDTINY
 62
  256
370
   13
100
AcDbLine
 10
75
 20
92
 11
20
 21
92
  0
LINE
  5
192
100
AcDbEntity
  8
panello
  6
DASHEDTINY
 62
  256
370
   13
100
AcDbLine
 10
20
 20
92
 11
20
 21
144
  0
LINE
  5
193
100
AcDbEntity
  8
panello
  6
DASHEDTINY
 62
  256
370
   13
100
AcDbLine
 10
20
 20
144
 11
33
 21
144
  0
LINE
  5
194
100
AcDbEntity
  8
panello
  6
DASHEDTINY
 62
  256
370
   13
100
AcDbLine
 10
50
 20
185
 11
90
 21
185
  0
MTEXT
  5
195
100
AcDbEntity
  8
controllo
  6
ByLayer
 62
  256
370
   13
100
AcDbMText
 10
57
 20
75
 30
0
 40
5
 41
10.55555555555556
 71
    1
 72
    1
  1
KM1\P
  7
standard
210
0
220
0
230
1
 50
0
 73
    2
 44
1
  0
LINE
  5
196
100
AcDbEntity
  8
controllo
  6
ByLayer
 62
  256
370
   13
100
AcDbLine
 10
60
 20
180
 11
130
 21
180
  0
LINE
  5
197
100
AcDbEntity
  8
controllo
  6
ByLayer
 62
  256
370
   13
100
AcDbLine
 10
20
 20
60
 11
130
 21
60
  0
MTEXT
  5
198
100
AcDbEntity
  8
controllo
  6
ByLayer
 62
  256
370
   13
100
AcDbMText
 10
86
 20
105
 30
0
 40
5
 41
10.55555555555556
 71
    1
 72
    1
  1
KM1\P
  7
standard
210
0
220
0
230
1
 50
0
 73
    2
 44
1
  0
MTEXT
  5
199
100
AcDbEntity
  8
controllo
  6
ByLayer
 62
  256
370
   13
100
AcDbMText
 10
20
 20
134
 30
0
 40
4
 41
8.888888040880291
 71
    1
 72
    1
  1
SB0\P
  7
standard
210
0
220
0
230
1
 50
0
 73
    2
 44
1
  0
MTEXT
  5
19A
100
AcDbEntity
  8
controllo
  6
ByLayer
 62
  256
370
   13
100
AcDbMText
 10
66
 20
134
 30
0
 40
4
 41
7.999999151991402
 71
    1
 72
    1
  1
SB1\P\P
  7
standard
210
0
220
0
230
1
 50
0
 73
    2
 44
1
  0
MTEXT
  5
19B
100
AcDbEntity
  8
controllo
  6
ByLayer
 62
  256
370
   13
100
AcDbMText
 10
61
 20
104
 30
0
 40
4
 41
8.888888040880291
 71
    1
 72
    1
  1
SB2\P\P
  7
standard
210
0
220
0
230
1
 50
0
 73
    2
 44
1
  0
MTEXT
  5
19C
100
AcDbEntity
  8
controllo
  6
ByLayer
 62
  256
370
   13
100
AcDbMText
 10
20
 20
164
 30
0
 40
4
 41
14.66666666666691
 71
    1
 72
    1
  1
FU2-3
  7
standard
210
0
220
0
230
1
 50
0
 73
    2
 44
1
  0
TEXT
  5
19D
100
AcDbEntity
  8
controllo
  6
ByLayer
 62
  256
370
   13
100
AcDbText
 10
65
 20
51
 30
0
 40
6
  1
MOTORE
 50
0
 41
1
 51
0
  7
standard
 71
    0
210
0
220
0
230
1
100
AcDbText
  0
LINE
  5
19E
100
AcDbEntity
  8
panello
  6
ByLayer
 62
  256
370
   13
100
AcDbLine
 10
88
 20
118
 11
92
 21
122
  0
CIRCLE
  5
19F
100
AcDbEntity
  8
panello
  6
ByLayer
 62
  256
370
   13
100
AcDbCircle
 10
90
 20
120
 40
1
  0
CIRCLE
  5
1A0
100
AcDbEntity
  8
panello
  6
ByLayer
 62
  256
370
   13
100
AcDbCircle
 10
80
 20
92
 40
1
  0
LINE
  5
1A1
100
AcDbEntity
  8
panello
  6
ByLayer
 62
  256
370
   13
100
AcDbLine
 10
78
 20
90
 11
82
 21
94
  0
CIRCLE
  5
1A2
100
AcDbEntity
  8
panello
  6
ByLayer
 62
  256
370
   13
100
AcDbCircle
 10
40
 20
144
 40
1
  0
LINE
  5
1A3
100
AcDbEntity
  8
panello
  6
ByLayer
 62
  256
370
   13
100
AcDbLine
 10
38
 20
142
 11
42
 21
146
  0
LINE
  5
1A4
100
AcDbEntity
  8
panello
  6
ByLayer
 62
  256
370
   13
100
AcDbLine
 10
88
 20
178
 11
92
 21
182
  0
CIRCLE
  5
1A5
100
AcDbEntity
  8
panello
  6
ByLayer
 62
  256
370
   13
100
AcDbCircle
 10
90
 20
180
 40
1
  0
MTEXT
  5
1A6
100
AcDbEntity
  8
controllo
  6
DASHED
 62
  256
370
   -1
100
AcDbMText
 10
105
 20
74
 30
0
 40
4
 41
7.555555555555555
 71
    1
 72
    1
  1
HL1\P
  7
STANDARD
210
0
220
0
230
1
 50
0
 73
    2
 44
1
  0
LWPOLYLINE
  5
1A7
100
AcDbEntity
  8
freno
  6
ByLayer
 62
  256
370
   13
100
AcDbPolyline
 90
    4
 70
    1
 43
0
 10
140
 20
80
 10
160
 20
80
 10
160
 20
70
 10
140
 20
70
  0
LINE
  5
1A8
100
AcDbEntity
  8
freno
  6
ByLayer
 62
  256
370
   13
100
AcDbLine
 10
150
 20
70
 11
150
 21
60
  0
LINE
  5
1A9
100
AcDbEntity
  8
freno
  6
ByLayer
 62
  256
370
   13
100
AcDbLine
 10
150
 20
60
 11
190
 21
60
  0
LINE
  5
1AA
100
AcDbEntity
  8
freno
  6
ByLayer
 62
  256
370
   13
100
AcDbLine
 10
140
 20
80
 11
160
 21
70
  0
LINE
  5
1AB
100
AcDbEntity
  8
freno
  6
ByLayer
 62
  256
370
   13
100
AcDbLine
 10
150
 20
180
 11
150
 21
170
  0
LINE
  5
1AC
100
AcDbEntity
  8
freno
  6
ByLayer
 62
  256
370
   13
100
AcDbLine
 10
145
 20
170
 11
150
 21
160
  0
LINE
  5
1AD
100
AcDbEntity
  8
freno
  6
ByLayer
 62
  256
370
   13
100
AcDbLine
 10
150
 20
160
 11
150
 21
150
  0
LINE
  5
1AE
100
AcDbEntity
  8
freno
  6
ByLayer
 62
  256
370
   13
100
AcDbLine
 10
150
 20
150
 11
170
 21
150
  0
LINE
  5
1AF
100
AcDbEntity
  8
freno
  6
ByLayer
 62
  256
370
   13
100
AcDbLine
 10
170
 20
150
 11
170
 21
160
  0
LINE
  5
1B0
100
AcDbEntity
  8
freno
  6
ByLayer
 62
  256
370
   13
100
AcDbLine
 10
170
 20
160
 11
165
 21
170
  0
LINE
  5
1B1
100
AcDbEntity
  8
freno
  6
ByLayer
 62
  256
370
   13
100
AcDbLine
 10
170
 20
170
 11
170
 21
180
  0
LINE
  5
1B2
100
AcDbEntity
  8
freno
  6
ByLayer
 62
  256
370
   13
100
AcDbLine
 10
170
 20
180
 11
150
 21
180
  0
LINE
  5
1B3
100
AcDbEntity
  8
freno
  6
ByLayer
 62
  256
370
   13
100
AcDbLine
 10
150
 20
150
 11
150
 21
140
  0
LINE
  5
1B4
100
AcDbEntity
  8
freno
  6
ByLayer
 62
  256
370
   13
100
AcDbLine
 10
150
 20
140
 11
155
 21
140
  0
LINE
  5
1B5
100
AcDbEntity
  8
freno
  6
ByLayer
 62
  256
370
   13
100
AcDbLine
 10
150
 20
130
 11
156
 21
142
  0
LINE
  5
1B6
100
AcDbEntity
  8
freno
  6
ByLayer
 62
  256
370
   13
100
AcDbLine
 10
150
 20
130
 11
150
 21
80
  0
LINE
  5
1B7
100
AcDbEntity
  8
freno
  6
ByLayer
 62
  256
370
   13
100
AcDbLine
 10
170
 20
180
 11
190
 21
180
  0
LINE
  5
1B8
100
AcDbEntity
  8
freno
  6
ByLayer
 62
  256
370
   13
100
AcDbLine
 10
190
 20
180
 11
190
 21
170
  0
LINE
  5
1B9
100
AcDbEntity
  8
freno
  6
ByLayer
 62
  256
370
   13
100
AcDbLine
 10
185
 20
170
 11
190
 21
160
  0
LINE
  5
1BA
100
AcDbEntity
  8
freno
  6
ByLayer
 62
  256
370
   13
100
AcDbLine
 10
190
 20
160
 11
190
 21
150
  0
LINE
  5
1BB
100
AcDbEntity
  8
freno
  6
ByLayer
 62
  256
370
   13
100
AcDbLine
 10
190
 20
150
 11
210
 21
150
  0
LINE
  5
1BC
100
AcDbEntity
  8
freno
  6
ByLayer
 62
  256
370
   13
100
AcDbLine
 10
210
 20
150
 11
210
 21
160
  0
LINE
  5
1BD
100
AcDbEntity
  8
freno
  6
ByLayer
 62
  256
370
   13
100
AcDbLine
 10
210
 20
160
 11
205
 21
170
  0
LINE
  5
1BE
100
AcDbEntity
  8
freno
  6
ByLayer
 62
  256
370
   13
100
AcDbLine
 10
210
 20
170
 11
210
 21
180
  0
LINE
  5
1BF
100
AcDbEntity
  8
freno
  6
ByLayer
 62
  256
370
   13
100
AcDbLine
 10
210
 20
180
 11
190
 21
180
  0
LINE
  5
1C0
100
AcDbEntity
  8
freno
  6
ByLayer
 62
  256
370
   13
100
AcDbLine
 10
190
 20
150
 11
190
 21
140
  0
LINE
  5
1C1
100
AcDbEntity
  8
freno
  6
ByLayer
 62
  256
370
   13
100
AcDbLine
 10
190
 20
140
 11
195
 21
140
  0
LINE
  5
1C2
100
AcDbEntity
  8
freno
  6
ByLayer
 62
  256
370
   13
100
AcDbLine
 10
190
 20
130
 11
196
 21
142
  0
LINE
  5
1C3
100
AcDbEntity
  8
freno
  6
ByLayer
 62
  256
370
   13
100
AcDbLine
 10
190
 20
120
 11
190
 21
110
  0
LINE
  5
1C4
100
AcDbEntity
  8
freno
  6
ByLayer
 62
  256
370
   13
100
AcDbLine
 10
190
 20
130
 11
190
 21
119
  0
MTEXT
  5
1C5
100
AcDbEntity
  8
freno
  6
ByLayer
 62
  256
370
   13
100
AcDbMText
 10
140
 20
134
 30
0
 40
4
 41
8
 71
    1
 72
    1
  1
KT1\P\P
  7
standard
210
0
220
0
230
1
 50
0
 73
    2
 44
1
  0
MTEXT
  5
1C6
100
AcDbEntity
  8
freno
  6
ByLayer
 62
  256
370
   13
100
AcDbMText
 10
159
 20
164
 30
0
 40
4
 41
8.444444444444445
 71
    1
 72
    1
  1
KA1\P\P
  7
standard
210
0
220
0
230
1
 50
0
 73
    2
 44
1
  0
LINE
  5
1C7
100
AcDbEntity
  8
freno
  6
ByLayer
 62
  256
370
   13
100
AcDbLine
 10
190
 20
100
 11
185
 21
110
  0
MTEXT
  5
1C8
100
AcDbEntity
  8
freno
  6
ByLayer
 62
  256
370
   13
100
AcDbMText
 10
179
 20
104
 30
0
 40
4
 41
8.444444444444445
 71
    1
 72
    1
  1
KA1\P\P
  7
standard
210
0
220
0
230
1
 50
0
 73
    2
 44
1
  0
MTEXT
  5
1C9
100
AcDbEntity
  8
freno
  6
ByLayer
 62
  256
370
   13
100
AcDbMText
 10
198
 20
164
 30
0
 40
4
 41
9.333333333333332
 71
    1
 72
    1
  1
KM2\P\P\P\P
  7
standard
210
0
220
0
230
1
 50
0
 73
    2
 44
1
  0
MTEXT
  5
1CA
100
AcDbEntity
  8
freno
  6
ByLayer
 62
  256
370
   13
100
AcDbMText
 10
139
 20
164
 30
0
 40
4
 41
8.444444444444445
 71
    1
 72
    1
  1
KM1
  7
standard
210
0
220
0
230
1
 50
0
 73
    2
 44
1
  0
LINE
  5
1CB
100
AcDbEntity
  8
freno
  6
ByLayer
 62
  256
370
   13
100
AcDbLine
 10
187
 20
165
 11
182
 21
165
  0
LINE
  5
1CC
100
AcDbEntity
  8
freno
  6
ByLayer
 62
  256
370
   13
100
AcDbLine
 10
183
 20
167
 11
181
 21
167
  0
LINE
  5
1CD
100
AcDbEntity
  8
freno
  6
ByLayer
 62
  256
370
   13
100
AcDbLine
 10
181
 20
167
 11
181
 21
163
  0
LINE
  5
1CE
100
AcDbEntity
  8
freno
  6
ByLayer
 62
  256
370
   13
100
AcDbLine
 10
181
 20
163
 11
183
 21
163
  0
LINE
  5
1CF
100
AcDbEntity
  8
freno
  6
ByLayer
 62
  256
370
   13
100
AcDbLine
 10
130
 20
175
 11
140
 21
180
  0
LINE
  5
1D0
100
AcDbEntity
  8
freno
  6
ByLayer
 62
  256
370
   13
100
AcDbLine
 10
140
 20
180
 11
150
 21
180
  0
LINE
  5
1D1
100
AcDbEntity
  8
freno
  6
ByLayer
 62
  256
370
   13
100
AcDbLine
 10
132
 20
172
 11
132
 21
174
  0
LINE
  5
1D2
100
AcDbEntity
  8
freno
  6
ByLayer
 62
  256
370
   13
100
AcDbLine
 10
132
 20
174
 11
138
 21
174
  0
LINE
  5
1D3
100
AcDbEntity
  8
freno
  6
ByLayer
 62
  256
370
   13
100
AcDbLine
 10
138
 20
174
 11
138
 21
176
  0
LINE
  5
1D4
100
AcDbEntity
  8
freno
  6
ByLayer
 62
  256
370
   13
100
AcDbLine
 10
138
 20
176
 11
138
 21
174
  0
LINE
  5
1D5
100
AcDbEntity
  8
freno
  6
ByLayer
 62
  256
370
   13
100
AcDbLine
 10
138
 20
174
 11
135
 21
174
  0
LINE
  5
1D6
100
AcDbEntity
  8
freno
  6
ByLayer
 62
  256
370
   13
100
AcDbLine
 10
135
 20
174
 11
135
 21
177
  0
MTEXT
  5
1D7
100
AcDbEntity
  8
freno
  6
ByLayer
 62
  256
370
   13
100
AcDbMText
 10
180
 20
134
 30
0
 40
4
 41
8.444444444444445
 71
    1
 72
    1
  1
KM1\P
  7
standard
210
0
220
0
230
1
 50
0
 73
    2
 44
1
  0
MTEXT
  5
1D8
100
AcDbEntity
  8
freno
  6
ByLayer
 62
  256
370
   13
100
AcDbMText
 10
172
 20
164
 30
0
 40
4
 41
7.999999151991402
 71
    1
 72
    1
  1
SB1\P\P
  7
standard
210
0
220
0
230
1
 50
0
 73
    2
 44
1
  0
MTEXT
  5
1D9
100
AcDbEntity
  8
freno
  6
ByLayer
 62
  256
370
   13
100
AcDbMText
 10
120
 20
174
 30
0
 40
4
 41
9.333332485324735
 71
    1
 72
    1
  1
SQ0\P
  7
standard
210
0
220
0
230
1
 50
0
 73
    2
 44
1
  0
MTEXT
  5
1DA
100
AcDbEntity
  8
freno
  6
ByLayer
 62
  256
370
   13
100
AcDbMText
 10
140
 20
57
 30
0
 40
6
 41
18.66666666666666
 71
    1
 72
    1
  1
AUX1
  7
standard
210
0
220
0
230
1
 50
0
 73
    2
 44
1
  0
TEXT
  5
1DB
100
AcDbEntity
  8
freno
  6
ByLayer
 62
  256
370
   13
100
AcDbText
 10
143
 20
181
 30
0
 40
4
  1
6
 50
0
 41
1
 51
0
  7
standard
 71
    0
210
0
220
0
230
1
100
AcDbText
  0
TEXT
  5
1DC
100
AcDbEntity
  8
freno
  6
ByLayer
 62
  256
370
   13
100
AcDbText
 10
148
 20
171
 30
0
 40
4
  1
6
 50
0
 41
1
 51
0
  7
standard
 71
    0
210
0
220
0
230
1
100
AcDbText
  0
TEXT
  5
1DD
100
AcDbEntity
  8
freno
  6
ByLayer
 62
  256
370
   13
100
AcDbText
 10
168
 20
171
 30
0
 40
4
  1
6
 50
0
 41
1
 51
0
  7
standard
 71
    0
210
0
220
0
230
1
100
AcDbText
  0
TEXT
  5
1DE
100
AcDbEntity
  8
freno
  6
ByLayer
 62
  256
370
   13
100
AcDbText
 10
188
 20
171
 30
0
 40
4
  1
6
 50
0
 41
1
 51
0
  7
standard
 71
    0
210
0
220
0
230
1
100
AcDbText
  0
TEXT
  5
1DF
100
AcDbEntity
  8
freno
  6
ByLayer
 62
  256
370
   13
100
AcDbText
 10
208
 20
171
 30
0
 40
4
  1
6
 50
0
 41
1
 51
0
  7
standard
 71
    0
210
0
220
0
230
1
100
AcDbText
  0
TEXT
  5
1E0
100
AcDbEntity
  8
freno
  6
ByLayer
 62
  256
370
   13
100
AcDbText
 10
148
 20
155
 30
0
 40
4
  1
7
 50
0
 41
1
 51
0
  7
standard
 71
    0
210
0
220
0
230
1
100
AcDbText
  0
TEXT
  5
1E1
100
AcDbEntity
  8
freno
  6
ByLayer
 62
  256
370
   13
100
AcDbText
 10
168
 20
155
 30
0
 40
4
  1
7
 50
0
 41
1
 51
0
  7
standard
 71
    0
210
0
220
0
230
1
100
AcDbText
  0
TEXT
  5
1E2
100
AcDbEntity
  8
freno
  6
ByLayer
 62
  256
370
   13
100
AcDbText
 10
148
 20
141
 30
0
 40
4
  1
7
 50
0
 41
1
 51
0
  7
standard
 71
    0
210
0
220
0
230
1
100
AcDbText
  0
TEXT
  5
1E3
100
AcDbEntity
  8
freno
  6
ByLayer
 62
  256
370
   13
100
AcDbText
 10
148
 20
126
 30
0
 40
4
  1
8
 50
0
 41
1
 51
0
  7
standard
 71
    0
210
0
220
0
230
1
100
AcDbText
  0
TEXT
  5
1E4
100
AcDbEntity
  8
freno
  6
ByLayer
 62
  256
370
   13
100
AcDbText
 10
148
 20
82
 30
0
 40
4
  1
8
 50
0
 41
1
 51
0
  7
standard
 71
    0
210
0
220
0
230
1
100
AcDbText
  0
TEXT
  5
1E5
100
AcDbEntity
  8
freno
  6
ByLayer
 62
  256
370
   13
100
AcDbText
 10
188
 20
156
 30
0
 40
4
  1
9
 50
0
 41
1
 51
0
  7
standard
 71
    0
210
0
220
0
230
1
100
AcDbText
  0
TEXT
  5
1E6
100
AcDbEntity
  8
freno
  6
ByLayer
 62
  256
370
   13
100
AcDbText
 10
208
 20
156
 30
0
 40
4
  1
9
 50
0
 41
1
 51
0
  7
standard
 71
    0
210
0
220
0
230
1
100
AcDbText
  0
TEXT
  5
1E7
100
AcDbEntity
  8
freno
  6
ByLayer
 62
  256
370
   13
100
AcDbText
 10
188
 20
141
 30
0
 40
4
  1
9
 50
0
 41
1
 51
0
  7
standard
 71
    0
210
0
220
0
230
1
100
AcDbText
  0
TEXT
  5
1E8
100
AcDbEntity
  8
freno
  6
ByLayer
 62
  256
370
   13
100
AcDbText
 10
186
 20
126
 30
0
 40
4
  1
10
 50
0
 41
1
 51
0
  7
standard
 71
    0
210
0
220
0
230
1
100
AcDbText
  0
TEXT
  5
1E9
100
AcDbEntity
  8
freno
  6
ByLayer
 62
  256
370
   13
100
AcDbText
 10
186
 20
110
 30
0
 40
4
  1
10
 50
0
 41
1
 51
0
  7
standard
 71
    0
210
0
220
0
230
1
100
AcDbText
  0
TEXT
  5
1EA
100
AcDbEntity
  8
freno
  6
ByLayer
 62
  256
370
   13
100
AcDbText
 10
186
 20
96
 30
0
 40
4
  1
11
 50
0
 41
1
 51
0
  7
standard
 71
    0
210
0
220
0
230
1
100
AcDbText
  0
LINE
  5
1EB
100
AcDbEntity
  8
panello
  6
ByLayer
 62
  256
370
   13
100
AcDbLine
 10
188
 20
175
 11
192
 21
179
  0
CIRCLE
  5
1EC
100
AcDbEntity
  8
panello
  6
ByLayer
 62
  256
370
   13
100
AcDbCircle
 10
190
 20
177
 40
1
  0
LINE
  5
1ED
100
AcDbEntity
  8
panello
  6
ByLayer
 62
  256
370
   13
100
AcDbLine
 10
188
 20
152
 11
192
 21
156
  0
CIRCLE
  5
1EE
100
AcDbEntity
  8
panello
  6
ByLayer
 62
  256
370
   13
100
AcDbCircle
 10
190
 20
154
 40
1
  0
LINE
  5
1EF
100
AcDbEntity
  8
panello
  6
DASHEDTINY
 62
  256
370
   -1
100
AcDbLine
 10
198
 20
154
 11
176
 21
154
  0
LINE
  5
1F0
100
AcDbEntity
  8
panello
  6
DASHEDTINY
 62
  256
370
   -1
100
AcDbLine
 10
176
 20
154
 11
172
 21
154
  0
LINE
  5
1F1
100
AcDbEntity
  8
panello
  6
DASHEDTINY
 62
  256
370
   -1
100
AcDbLine
 10
198
 20
177
 11
198
 21
154
  0
LINE
  5
1F2
100
AcDbEntity
  8
panello
  6
DASHEDTINY
 62
  256
370
   -1
100
AcDbLine
 10
172
 20
154
 11
172
 21
177
  0
LINE
  5
1F3
100
AcDbEntity
  8
panello
  6
DASHEDTINY
 62
  256
370
   -1
100
AcDbLine
 10
172
 20
177
 11
198
 21
177
  0
MTEXT
  5
1F4
100
AcDbEntity
  8
freno
  6
ByLayer
 62
  256
370
   13
100
AcDbMText
 10
130
 20
74
 30
0
 40
4
 41
8.444444444444445
 71
    1
 72
    1
  1
KA1\P\P
  7
standard
210
0
220
0
230
1
 50
0
 73
    2
 44
1
  0
LINE
  5
1F5
100
AcDbEntity
  8
freno
  6
ByLayer
 62
  256
370
   13
100
AcDbLine
 10
150
 20
60
 11
130
 21
60
  0
LWPOLYLINE
  5
1F6
100
AcDbEntity
  8
freno
  6
ByLayer
 62
  256
370
   13
100
AcDbPolyline
 90
    4
 70
    1
 43
0
 10
220
 20
80
 10
240
 20
80
 10
240
 20
70
 10
220
 20
70
  0
LWPOLYLINE
  5
1F7
100
AcDbEntity
  8
freno
  6
ByLayer
 62
  256
370
   13
100
AcDbPolyline
 90
    4
 70
    1
 43
0
 10
260
 20
80
 10
280
 20
80
 10
280
 20
70
 10
260
 20
70
  0
LINE
  5
1F8
100
AcDbEntity
  8
freno
  6
ByLayer
 62
  256
370
   13
100
AcDbLine
 10
230
 20
60
 11
230
 21
70
  0
LINE
  5
1F9
100
AcDbEntity
  8
freno
  6
ByLayer
 62
  256
370
   13
100
AcDbLine
 10
230
 20
70
 11
230
 21
60
  0
LINE
  5
1FA
100
AcDbEntity
  8
freno
  6
ByLayer
 62
  256
370
   13
100
AcDbLine
 10
230
 20
60
 11
270
 21
60
  0
LINE
  5
1FB
100
AcDbEntity
  8
freno
  6
ByLayer
 62
  256
370
   13
100
AcDbLine
 10
270
 20
60
 11
270
 21
70
  0
LINE
  5
1FC
100
AcDbEntity
  8
freno
  6
ByLayer
 62
  256
370
   13
100
AcDbLine
 10
220
 20
80
 11
240
 21
70
  0
LINE
  5
1FD
100
AcDbEntity
  8
freno
  6
ByLayer
 62
  256
370
   13
100
AcDbLine
 10
260
 20
80
 11
280
 21
70
  0
MTEXT
  5
1FE
100
AcDbEntity
  8
freno
  6
ByLayer
 62
  256
370
   13
100
AcDbMText
 10
250
 20
74
 30
0
 40
4
 41
9.333333333333332
 71
    1
 72
    1
  1
KM2\P
  7
standard
210
0
220
0
230
1
 50
0
 73
    2
 44
1
  0
LINE
  5
1FF
100
AcDbEntity
  8
freno
  6
ByLayer
 62
  256
370
   13
100
AcDbLine
 10
230
 20
80
 11
230
 21
90
  0
LINE
  5
200
100
AcDbEntity
  8
freno
  6
ByLayer
 62
  256
370
   13
100
AcDbLine
 10
230
 20
90
 11
270
 21
90
  0
LINE
  5
201
100
AcDbEntity
  8
freno
  6
ByLayer
 62
  256
370
   13
100
AcDbLine
 10
270
 20
90
 11
270
 21
80
  0
MTEXT
  5
202
100
AcDbEntity
  8
freno
  6
ByLayer
 62
  256
370
   13
100
AcDbMText
 10
220
 20
57
 30
0
 40
6
 41
21.33333333333334
 71
    1
 72
    1
  1
TIMER
  7
standard
210
0
220
0
230
1
 50
0
 73
    2
 44
1
  0
MTEXT
  5
203
100
AcDbEntity
  8
freno
  6
ByLayer
 62
  256
370
   13
100
AcDbMText
 10
258
 20
58
 30
0
 40
6
 41
23.33333333333334
 71
    1
 72
    1
  1
FRENO
  7
standard
210
0
220
0
230
1
 50
0
 73
    2
 44
1
  0
LWPOLYLINE
  5
204
100
AcDbEntity
  8
freno
  6
ByLayer
 62
  256
370
   13
100
AcDbPolyline
 90
    4
 70
    1
 43
0
 10
180
 20
80
 10
200
 20
80
 10
200
 20
70
 10
180
 20
70
  0
LINE
  5
205
100
AcDbEntity
  8
freno
  6
ByLayer
 62
  256
370
   13
100
AcDbLine
 10
190
 20
70
 11
190
 21
60
  0
LINE
  5
206
100
AcDbEntity
  8
freno
  6
ByLayer
 62
  256
370
   13
100
AcDbLine
 10
180
 20
80
 11
200
 21
70
  0
LINE
  5
207
100
AcDbEntity
  8
freno
  6
ByLayer
 62
  256
370
   13
100
AcDbLine
 10
190
 20
100
 11
190
 21
80
  0
MTEXT
  5
208
100
AcDbEntity
  8
freno
  6
ByLayer
 62
  256
370
   -1
100
AcDbMText
 10
170
 20
74
 30
0
 40
4
 41
9.333333333333332
 71
    1
 72
    1
  1
KA2
  7

210
0
220
0
230
1
 50
0
 73
    2
 44
1
  0
MTEXT
  5
209
100
AcDbEntity
  8
freno
  6
ByLayer
 62
  256
370
   13
100
AcDbMText
 10
210
 20
74
 30
0
 40
4
 41
8
 71
    1
 72
    1
  1
KT1\P\P\P
  7
standard
210
0
220
0
230
1
 50
0
 73
    2
 44
1
  0
TEXT
  5
20A
100
AcDbEntity
  8
freno
  6
ByLayer
 62
  256
370
   13
100
AcDbText
 10
186
 20
81
 30
0
 40
4
  1
11
 50
0
 41
1
 51
0
  7
standard
 71
    0
210
0
220
0
230
1
100
AcDbText
  0
LINE
  5
20B
100
AcDbEntity
  8
freno
  6
ByLayer
 62
  256
370
   -1
100
AcDbLine
 10
230
 20
180
 11
230
 21
170
  0
LINE
  5
20C
100
AcDbEntity
  8
freno
  6
ByLayer
 62
  256
370
   -1
100
AcDbLine
 10
230
 20
160
 11
230
 21
90
  0
LINE
  5
20D
100
AcDbEntity
  8
freno
  6
ByLayer
 62
  256
370
   -1
100
AcDbLine
 10
230
 20
159
 11
230
 21
160
  0
LINE
  5
20E
100
AcDbEntity
  8
freno
  6
ByLayer
 62
  256
370
   -1
100
AcDbLine
 10
230
 20
160
 11
225
 21
170
  0
MTEXT
  5
20F
100
AcDbEntity
  8
freno
  6
ByLayer
 62
  256
370
   -1
100
AcDbMText
 10
217
 20
164
 30
0
 40
4
 41
9.333333333333332
 71
    1
 72
    1
  1
KA2\P
  7

210
0
220
0
230
1
 50
0
 73
    2
 44
1
  0
LINE
  5
210
100
AcDbEntity
  8
freno
  6
ByLayer
 62
  256
370
   13
100
AcDbLine
 10
240.5
 20
180
 11
239.5
 21
182
  0
LINE
  5
211
100
AcDbEntity
  8
freno
  6
ByLayer
 62
  256
370
   13
100
AcDbLine
 10
239.5
 20
182
 11
250.5
 21
180
  0
LINE
  5
212
100
AcDbEntity
  8
freno
  6
ByLayer
 62
  256
370
   13
100
AcDbLine
 10
250.5
 20
180
 11
239.5
 21
178
  0
LINE
  5
213
100
AcDbEntity
  8
freno
  6
ByLayer
 62
  256
370
   13
100
AcDbLine
 10
239.5
 20
178
 11
240.5
 21
180
  0
LINE
  5
214
100
AcDbEntity
  8
freno
  6
ByLayer
 62
  256
370
   -1
100
AcDbLine
 10
230
 20
180
 11
250
 21
180
  0
CIRCLE
  5
215
100
AcDbEntity
  8
potenza
  6
ByLayer
 62
  256
370
   -1
100
AcDbCircle
 10
445
 20
180
 40
1
  0
CIRCLE
  5
216
100
AcDbEntity
  8
potenza
  6
ByLayer
 62
  256
370
   -1
100
AcDbCircle
 10
455
 20
185
 40
1
  0
LINE
  5
217
100
AcDbEntity
  8
potenza
  6
ByLayer
 62
  256
370
   -1
100
AcDbLine
 10
455
 20
185
 11
455
 21
145
  0
LINE
  5
218
100
AcDbEntity
  8
potenza
  6
ByLayer
 62
  256
370
   13
100
AcDbLine
 10
430
 20
175
 11
431
 21
173
  0
LINE
  5
219
100
AcDbEntity
  8
potenza
  6
ByLayer
 62
  256
370
   13
100
AcDbLine
 10
431
 20
173
 11
420
 21
175
  0
LINE
  5
21A
100
AcDbEntity
  8
potenza
  6
ByLayer
 62
  256
370
   13
100
AcDbLine
 10
420
 20
175
 11
431
 21
177
  0
LINE
  5
21B
100
AcDbEntity
  8
potenza
  6
ByLayer
 62
  256
370
   13
100
AcDbLine
 10
431
 20
177
 11
430
 21
175
  0
LINE
  5
21C
100
AcDbEntity
  8
potenza
  6
ByLayer
 62
  256
370
   -1
100
AcDbLine
 10
435
 20
175
 11
430
 21
175
  0
MTEXT
  5
21D
100
AcDbEntity
  8
potenza
  6
ByLayer
 62
  256
370
   -1
100
AcDbMText
 10
409
 20
174
 30
0
 40
4
 41
12.00000000000025
 71
    1
 72
    1
  1
230V\P
  7

210
0
220
0
230
1
 50
0
 73
    2
 44
1
  0
LINE
  5
21E
100
AcDbEntity
  8
potenza
  6
ByLayer
 62
  256
370
   13
100
AcDbLine
 10
435
 20
155
 11
435
 21
145
  0
LINE
  5
21F
100
AcDbEntity
  8
potenza
  6
ByLayer
 62
  256
370
   13
100
AcDbLine
 10
445
 20
155
 11
445
 21
151
  0
LINE
  5
220
100
AcDbEntity
  8
potenza
  6
ByLayer
 62
  256
370
   13
100
AcDbLine
 10
437
 20
165
 11
433
 21
165
  0
LINE
  5
221
100
AcDbEntity
  8
potenza
  6
ByLayer
 62
  256
370
   13
100
AcDbLine
 10
443
 20
165
 11
447
 21
165
  0
LINE
  5
222
100
AcDbEntity
  8
potenza
  6
ByLayer
 62
  256
370
   13
100
AcDbLine
 10
435
 20
155
 11
430
 21
163.6602540378444
  0
LWPOLYLINE
  5
223
100
AcDbEntity
  8
potenza
  6
ByLayer
 62
  256
370
   13
100
AcDbPolyline
 90
    4
 70
    1
 43
0
 10
430.1339745962156
 20
161.4282032302755
 10
431.8660254037844
 20
162.4282032302755
 10
434.8660254037844
 20
157.2320508075689
 10
433.1339745962156
 20
156.2320508075689
  0
LINE
  5
224
100
AcDbEntity
  8
potenza
  6
ByLayer
 62
  256
370
   13
100
AcDbLine
 10
445
 20
155
 11
440
 21
163.6602540378444
  0
LWPOLYLINE
  5
225
100
AcDbEntity
  8
potenza
  6
ByLayer
 62
  256
370
   13
100
AcDbPolyline
 90
    4
 70
    1
 43
0
 10
440.1339745962156
 20
161.4282032302755
 10
441.8660254037844
 20
162.4282032302755
 10
444.8660254037844
 20
157.2320508075689
 10
443.1339745962156
 20
156.2320508075689
  0
LINE
  5
226
100
AcDbEntity
  8
potenza
  6
DOT2
 62
  256
370
   13
100
AcDbLine
 10
434
 20
160
 11
440
 21
160
  0
LINE
  5
227
100
AcDbEntity
  8
potenza
  6
ByLayer
 62
  256
370
   -1
100
AcDbLine
 10
435
 20
165
 11
435
 21
175
  0
LINE
  5
228
100
AcDbEntity
  8
potenza
  6
ByLayer
 62
  256
370
   13
100
AcDbLine
 10
445
 20
181
 11
445
 21
165
  0
MTEXT
  5
229
100
AcDbEntity
  8
potenza
  6
ByLayer
 62
  256
370
   -1
100
AcDbMText
 10
449
 20
155
 30
0
 40
4
 41
5.111111111111111
 71
    1
 72
    1
  1
'0'
  7

210
0
220
0
230
1
 50
0
 73
    2
 44
1
  0
MTEXT
  5
22A
100
AcDbEntity
  8
potenza
  6
ByLayer
 62
  256
370
   -1
100
AcDbMText
 10
436
 20
155
 30
0
 40
3
 41
8.833333333333334
 71
    1
 72
    1
  1
'400'
  7

210
0
220
0
230
1
 50
0
 73
    2
 44
1
  0
MTEXT
  5
22B
100
AcDbEntity
  8
potenza
  6
ByLayer
 62
  256
370
   -1
100
AcDbMText
 10
426
 20
151
 30
0
 40
3
 41
8.500000000000188
 71
    1
 72
    1
  1
'230'
  7

210
0
220
0
230
1
 50
0
 73
    2
 44
1
  0
MTEXT
  5
22C
100
AcDbEntity
  8
potenza
  6
ByLayer
 62
  256
370
   13
100
AcDbMText
 10
407.8888888888889
 20
164
 30
0
 40
4
 41
19.88888888888889
 71
    1
 72
    1
  1
FU2 1-2\P
  7
standard
210
0
220
0
230
1
 50
0
 73
    2
 44
1
  0
MTEXT
  5
22D
100
AcDbEntity
  8
freno
  6
ByLayer
 62
  256
370
   -1
100
AcDbMText
 10
252
 20
184
 30
0
 40
4
 41
8.000000000000249
 71
    1
 72
    1
  1
230\P
  7

210
0
220
0
230
1
 50
0
 73
    2
 44
1
  0
MTEXT
  5
22E
100
AcDbEntity
  8
freno
  6
ByLayer
 62
  256
370
   -1
100
AcDbMText
 10
225
 20
158
 30
0
 40
4
 41
4
 71
    1
 72
    1
  1
12
  7

210
0
220
0
230
1
 50
0
 73
    2
 44
1
  0
MTEXT
  5
22F
100
AcDbEntity
  8
freno
  6
ByLayer
 62
  256
370
   -1
100
AcDbMText
 10
225
 20
85
 30
0
 40
4
 41
4
 71
    1
 72
    1
  1
12
  7

210
0
220
0
230
1
 50
0
 73
    2
 44
1
  0
MTEXT
  5
230
100
AcDbEntity
  8
freno
  6
ByLayer
 62
  256
370
   -1
100
AcDbMText
 10
265
 20
85
 30
0
 40
4
 41
4
 71
    1
 72
    1
  1
12
  7

210
0
220
0
230
1
 50
0
 73
    2
 44
1
  0
LINE
  5
231
100
AcDbEntity
  8
potenza
  6
ByLayer
 62
  256
370
   13
100
AcDbLine
 10
400
 20
170
 11
400
 21
150
  0
LINE
  5
232
100
AcDbEntity
  8
potenza
  6
ByLayer
 62
  256
370
   13
100
AcDbLine
 10
390
 20
170
 11
390
 21
150
  0
LINE
  5
233
100
AcDbEntity
  8
potenza
  6
ByLayer
 62
  256
370
   13
100
AcDbLine
 10
380
 20
170
 11
380
 21
150
  0
LINE
  5
234
100
AcDbEntity
  8
potenza
  6
ByLayer
 62
  256
370
   13
100
AcDbLine
 10
440
 20
105
 11
480
 21
105
  0
LINE
  5
235
100
AcDbEntity
  8
potenza
  6
ByLayer
 62
  256
370
   13
100
AcDbLine
 10
440
 20
119
 11
440
 21
105
  0
LINE
  5
236
100
AcDbEntity
  8
potenza
  6
ByLayer
 62
  256
370
   13
100
AcDbLine
 10
560
 20
165
 11
480
 21
165
  0
LINE
  5
237
100
AcDbEntity
  8
potenza
  6
ByLayer
 62
  256
370
   13
100
AcDbLine
 10
480
 20
165
 11
480
 21
105
  0
LINE
  5
238
100
AcDbEntity
  8
potenza
  6
ByLayer
 62
  256
370
   13
100
AcDbLine
 10
560
 20
165
 11
559
 21
167
  0
LINE
  5
239
100
AcDbEntity
  8
potenza
  6
ByLayer
 62
  256
370
   13
100
AcDbLine
 10
559
 20
167
 11
570
 21
165
  0
LINE
  5
23A
100
AcDbEntity
  8
potenza
  6
ByLayer
 62
  256
370
   13
100
AcDbLine
 10
570
 20
165
 11
559
 21
163
  0
LINE
  5
23B
100
AcDbEntity
  8
potenza
  6
ByLayer
 62
  256
370
   13
100
AcDbLine
 10
559
 20
163
 11
560
 21
165
  0
TEXT
  5
23C
100
AcDbEntity
  8
potenza
  6
ByLayer
 62
  256
370
   13
100
AcDbText
 10
571
 20
163
 30
0
 40
4
  1
0V
 50
0
 41
1
 51
0
  7
standard
 71
    0
210
0
220
0
230
1
100
AcDbText
  0
CIRCLE
  5
23D
100
AcDbEntity
  8
potenza
  6
ByLayer
 62
  256
370
   -1
100
AcDbCircle
 10
530
 20
165
 40
1
  0
LINE
  5
23E
100
AcDbEntity
  8
potenza
  6
ByLayer
 62
  256
370
   13
100
AcDbLine
 10
530
 20
165
 11
530
 21
140
  0
ARC
  5
23F
100
AcDbEntity
  8
potenza
  6
ByLayer
 62
  256
370
   13
100
AcDbCircle
 10
520
 20
116
 40
1
100
AcDbArc
 50
90
 51
270
  0
ARC
  5
240
100
AcDbEntity
  8
potenza
  6
ByLayer
 62
  256
370
   13
100
AcDbCircle
 10
530
 20
116
 40
1
100
AcDbArc
 50
90
 51
270
  0
LINE
  5
241
100
AcDbEntity
  8
potenza
  6
ByLayer
 62
  256
370
   13
100
AcDbLine
 10
530
 20
114.9999999999763
 11
530
 21
130
  0
LINE
  5
242
100
AcDbEntity
  8
potenza
  6
ByLayer
 62
  256
370
   13
100
AcDbLine
 10
520
 20
114.9999999999836
 11
520
 21
130
  0
LINE
  5
243
100
AcDbEntity
  8
potenza
  6
ByLayer
 62
  256
370
   13
100
AcDbLine
 10
520
 20
105
 11
515
 21
115
  0
LINE
  5
244
100
AcDbEntity
  8
potenza
  6
ByLayer
 62
  256
370
   13
100
AcDbLine
 10
530
 20
105
 11
525
 21
115
  0
TEXT
  5
245
100
AcDbEntity
  8
potenza
  6
ByLayer
 62
  256
370
   13
100
AcDbText
 10
505
 20
105.0000000000124
 30
0
 40
4
  1
KM2
 50
0
 41
1
 51
0
  7
standard
 71
    0
210
0
220
0
230
1
100
AcDbText
  0
TEXT
  5
246
100
AcDbEntity
  8
potenza
  6
ByLayer
 62
  256
370
   13
100
AcDbText
 10
514
 20
100
 30
0
 40
4
  1
V1
 50
0
 41
1
 51
0
  7
standard
 71
    0
210
0
220
0
230
1
100
AcDbText
  0
TEXT
  5
247
100
AcDbEntity
  8
potenza
  6
ByLayer
 62
  256
370
   13
100
AcDbText
 10
523.1111111111111
 20
100
 30
0
 40
4
  1
W1
 50
0
 41
1
 51
0
  7
standard
 71
    0
210
0
220
0
230
1
100
AcDbText
  0
LINE
  5
248
100
AcDbEntity
  8
potenza
  6
ByLayer
 62
  256
370
   13
100
AcDbLine
 10
390
 20
95
 11
520
 21
95
  0
CIRCLE
  5
249
100
AcDbEntity
  8
potenza
  6
ByLayer
 62
  256
370
   -1
100
AcDbCircle
 10
390
 20
95
 40
1
  0
LINE
  5
24A
100
AcDbEntity
  8
potenza
  6
ByLayer
 62
  256
370
   13
100
AcDbLine
 10
400
 20
90
 11
530
 21
90
  0
CIRCLE
  5
24B
100
AcDbEntity
  8
potenza
  6
ByLayer
 62
  256
370
   -1
100
AcDbCircle
 10
400
 20
90
 40
1
  0
LINE
  5
24C
100
AcDbEntity
  8
potenza
  6
ByLayer
 62
  256
370
   13
100
AcDbLine
 10
520
 20
95
 11
520
 21
105
  0
LINE
  5
24D
100
AcDbEntity
  8
potenza
  6
ByLayer
 62
  256
370
   13
100
AcDbLine
 10
530
 20
90
 11
530
 21
105
  0
TEXT
  5
24E
100
AcDbEntity
  8
potenza
  6
ByLayer
 62
  256
370
   13
100
AcDbText
 10
376
 20
114
 30
0
 40
4
  1
U
 50
0
 41
1
 51
0
  7
standard
 71
    0
210
0
220
0
230
1
100
AcDbText
  0
TEXT
  5
24F
100
AcDbEntity
  8
potenza
  6
ByLayer
 62
  256
370
   13
100
AcDbText
 10
386
 20
114
 30
0
 40
4
  1
V
 50
0
 41
1
 51
0
  7
standard
 71
    0
210
0
220
0
230
1
100
AcDbText
  0
LINE
  5
250
100
AcDbEntity
  8
potenza
  6
ByLayer
 62
  256
370
   13
100
AcDbLine
 10
400
 20
100
 11
400
 21
80
  0
LINE
  5
251
100
AcDbEntity
  8
potenza
  6
ByLayer
 62
  256
370
   13
100
AcDbLine
 10
390
 20
100
 11
390
 21
80
  0
LINE
  5
252
100
AcDbEntity
  8
potenza
  6
ByLayer
 62
  256
370
   13
100
AcDbLine
 10
380
 20
100
 11
380
 21
80
  0
LINE
  5
253
100
AcDbEntity
  8
potenza
  6
ByLayer
 62
  256
370
   -1
100
AcDbLine
 10
380
 20
70
 11
375
 21
80
  0
LINE
  5
254
100
AcDbEntity
  8
potenza
  6
ByLayer
 62
  256
370
   -1
100
AcDbLine
 10
385
 20
80
 11
390
 21
70
  0
LINE
  5
255
100
AcDbEntity
  8
potenza
  6
ByLayer
 62
  256
370
   -1
100
AcDbLine
 10
395
 20
80
 11
400
 21
70
  0
LINE
  5
256
100
AcDbEntity
  8
potenza
  6
ByLayer
 62
  256
370
   -1
100
AcDbLine
 10
379
 20
81
 11
381
 21
79
  0
LINE
  5
257
100
AcDbEntity
  8
potenza
  6
ByLayer
 62
  256
370
   -1
100
AcDbLine
 10
379
 20
79
 11
381
 21
81
  0
LINE
  5
258
100
AcDbEntity
  8
potenza
  6
ByLayer
 62
  256
370
   -1
100
AcDbLine
 10
389
 20
81
 11
391
 21
79
  0
LINE
  5
259
100
AcDbEntity
  8
potenza
  6
ByLayer
 62
  256
370
   -1
100
AcDbLine
 10
389
 20
79
 11
391
 21
81
  0
LINE
  5
25A
100
AcDbEntity
  8
potenza
  6
ByLayer
 62
  256
370
   -1
100
AcDbLine
 10
399
 20
81
 11
401
 21
79
  0
LINE
  5
25B
100
AcDbEntity
  8
potenza
  6
ByLayer
 62
  256
370
   -1
100
AcDbLine
 10
399
 20
79
 11
401
 21
81
  0
TEXT
  5
25C
100
AcDbEntity
  8
potenza
  6
ByLayer
 62
  256
370
   13
100
AcDbText
 10
395
 20
114
 30
0
 40
4
  1
W
 50
0
 41
1
 51
0
  7
standard
 71
    0
210
0
220
0
230
1
100
AcDbText
  0
TEXT
  5
25D
100
AcDbEntity
  8
freno
  6
ByLayer
 62
  256
370
   13
100
AcDbText
 10
224
 20
59
 30
0
 40
4
  1
V
 50
0
 41
1
 51
0
  7
standard
 71
    0
210
0
220
0
230
1
100
AcDbText
  0
MTEXT
  5
25E
100
AcDbEntity
  8
controllo
  6
ByLayer
 62
  256
370
   -1
100
AcDbMText
 10
77
 20
65
 30
0
 40
4
 41
1.777777777777778
 71
    1
 72
    1
  1
0
  7

210
0
220
0
230
1
 50
0
 73
    2
 44
1
  0
MTEXT
  5
25F
100
AcDbEntity
  8
controllo
  6
ByLayer
 62
  256
370
   -1
100
AcDbMText
 10
117
 20
65
 30
0
 40
4
 41
1.777777777777778
 71
    1
 72
    1
  1
0
  7

210
0
220
0
230
1
 50
0
 73
    2
 44
1
  0
MTEXT
  5
260
100
AcDbEntity
  8
freno
  6
ByLayer
 62
  256
370
   -1
100
AcDbMText
 10
147
 20
65
 30
0
 40
4
 41
1.777777777777778
 71
    1
 72
    1
  1
0
  7

210
0
220
0
230
1
 50
0
 73
    2
 44
1
  0
MTEXT
  5
261
100
AcDbEntity
  8
freno
  6
ByLayer
 62
  256
370
   -1
100
AcDbMText
 10
187
 20
65
 30
0
 40
4
 41
1.777777777777778
 71
    1
 72
    1
  1
0
  7

210
0
220
0
230
1
 50
0
 73
    2
 44
1
  0
MTEXT
  5
262
100
AcDbEntity
  8
freno
  6
ByLayer
 62
  256
370
   -1
100
AcDbMText
 10
180
 20
57
 30
0
 40
6
 41
20
 71
    1
 72
    1
  1
AUX2
  7

210
0
220
0
230
1
 50
0
 73
    2
 44
1
  0
ENDSEC
  0
SECTION
  2
OBJECTS
  0
DICTIONARY
  5
C
330
0
100
AcDbDictionary
281
    1
  3
ACAD_GROUP
350
D
  0
DICTIONARY
  5
D
330
C
100
AcDbDictionary
281
    1
  0
ENDSEC
  0
EOF
